<?xml version="1.0" encoding="UTF-8" standalone="no"?>
<svg
   xmlns:dc="http://purl.org/dc/elements/1.1/"
   xmlns:cc="http://creativecommons.org/ns#"
   xmlns:rdf="http://www.w3.org/1999/02/22-rdf-syntax-ns#"
   xmlns:svg="http://www.w3.org/2000/svg"
   xmlns="http://www.w3.org/2000/svg"
   xmlns:sodipodi="http://sodipodi.sourceforge.net/DTD/sodipodi-0.dtd"
   xmlns:inkscape="http://www.inkscape.org/namespaces/inkscape"
   version="1.0"
   width="192"
   height="192"
   viewBox="0 0 153.6 153.6"
   preserveAspectRatio="xMidYMid meet"
   id="svg2"
   inkscape:version="0.48.4 r9939"
   sodipodi:docname="2bWM.svg">
  <defs
     id="defs20" />
  <sodipodi:namedview
     pagecolor="#ffffff"
     bordercolor="#666666"
     borderopacity="1"
     objecttolerance="10"
     gridtolerance="10"
     guidetolerance="10"
     inkscape:pageopacity="0"
     inkscape:pageshadow="2"
     inkscape:window-width="1920"
     inkscape:window-height="1133"
     id="namedview18"
     showgrid="false"
     fit-margin-top="0"
     inkscape:zoom="3.9162837"
     inkscape:cx="69.471071"
     inkscape:cy="102.82001"
     inkscape:window-x="0"
     inkscape:window-y="25"
     inkscape:window-maximized="1"
     inkscape:current-layer="g3022" />
  <metadata
     id="metadata4">
Created by potrace 1.11, written by Peter Selinger 2001-2013
<rdf:RDF>
  <cc:Work
     rdf:about="">
    <dc:format>image/svg+xml</dc:format>
    <dc:type
       rdf:resource="http://purl.org/dc/dcmitype/StillImage" />
  </cc:Work>
</rdf:RDF>
</metadata>
  <g
     id="g3022"
     transform="matrix(1,0,0,1.0031767,-16,14.836586)">
    <rect
       style="fill:#ffffff;fill-opacity:1;fill-rule:evenodd;stroke:none"
       id="rect3077"
       width="153.60001"
       height="113.24027"
       x="16"
       y="5.1470633" />
    <g
       id="g3069">
      <g
         id="g3037">
        <path
           sodipodi:nodetypes="ccccccscssscccscscsccccccsccccccccscscsccscscscsccsccscccccscccccccssccccccc"
           d="m 16,98.450666 137.6,0 0,-89.316058 -137.6,0 z M 39.493164,31.034608 c 3.1,2.6 3.5,3.4 3.5,7.7 0,4.4 -0.8,6.1 -8.3,17.2 -4.5,6.8 -8.2,12.5 -8.2,12.8 0,0.2 3.8,0.4 8.5,0.4 8.4,0 8.5,0 8.5,2.500002 l 0,2.5 -11,0 -11,0 0,-3.500002 c 0,-2.8 1.8,-6.2 8.1,-15.7 9,-13.3 10.1,-16.6 7,-19.7 -2.8,-2.8 -6.3,-2.6 -9.3,0.4 -2.6,2.5 -5.8,2.6 -5.8,0.1 0,-1.4 4.8,-6.1 7,-6.9 3.8,-1.4 7.7,-0.6 11,2.2 z m 35.1,1.9 c 4.2,4.7 3.8,12.3 -0.9,15.8 -1.4,1 -1.3,1.3 0.5,2.2 3.8,2.1 5,10.6 2.4,17 -1.7,4.200002 -6.4,6.200002 -14.3,6.200002 l -6.4,0 0,-22.600002 -0.1,-22.6 8,0.4 c 7.4,0.3 8,0.5 10.8,3.6 z m 18,3.4 c 0.1,9.2 0.9,25.2 1.3,25.6 0.2,0.1 1.5,-2.8 2.9,-6.5 1.3,-3.7 3,-6.8 3.700006,-6.8 0.7,0 2.4,3.1 3.7,6.8 1.4,3.7 2.7,6.6 2.8,6.5 0.4,-0.4 1.4,-18.2 1.5,-26.1 0,-6.6 0.1,-6.7 2.6,-6.7 l 2.7,0 -0.7,13.2 c -0.7,14.1 -1.5,25 -2.1,28.3 -0.2,1.100002 -0.4,2.300002 -0.4,2.700002 -0.1,0.5 -0.9,0.8 -2,0.8 -1.4,0 -2.5,-1.8 -4.7,-8.000002 -1.5,-4.4 -3.1,-8 -3.5,-8 -0.400006,0 -2.000006,3.6 -3.500006,8 -2.1,5.900002 -3.3,8.000002 -4.6,8.000002 -2.6,0 -3,-2.4 -4.4,-31.300002 l -0.7,-13.7 2.7,0 c 2.6,0 2.6,0.1 2.7,7.2 z m 37.600006,1.3 c 1.9,4.4 3.7,8.3 4.1,8.7 0.4,0.4 2.3,-3.2 4.2,-8 3,-7.4 3.9,-8.7 6,-9 l 2.5,-0.3 -0.1,21.8 c -0.1,12 -0.2,22.100002 -0.3,22.500002 0,0.5 -1.2,0.8 -2.5,0.8 l -2.4,0 0.2,-16.600002 0.1,-16.6 -2.7,5.8 c -1.5,3.3 -2.7,6.5 -2.8,7.2 0,0.8 -0.8,1.2 -1.7,1 -1.1,-0.2 -2.8,-2.7 -4.3,-6.6 -1.4,-3.4 -2.7,-6.2 -3,-6.2 -0.3,0 -0.5,7.2 -0.5,16 l 0,16.100002 -2.5,-0.3 -2.5,-0.3 -0.1,-21.500002 c 0,-11.8 0.2,-21.9 0.4,-22.3 0.2,-0.5 1.3,-0.7 2.5,-0.5 1.5,0.2 2.9,2.4 5.4,8.3 z"
           id="path8"
           inkscape:connector-curvature="0"
           style="fill:#000000;stroke:none" />
        <path
           d="m 61.393164,34.834608 c -0.1,0.5 -0.2,3.4 -0.3,6.5 l -0.1,5.8 4.1,0 c 4.9,0 7.4,-2.3 7.4,-6.7 0,-1.6 -0.8,-3.7 -1.8,-4.6 -1.8,-1.7 -9.1,-2.4 -9.3,-1 z"
           id="path10"
           inkscape:connector-curvature="0"
           style="fill:#000000;stroke:none" />
        <path
           d="m 61.393164,52.334608 c -0.1,0.2 -0.2,4 -0.3,8.5 l -0.1,8.3 4,0 c 5.9,-0.1 7.7,-1.9 7.8,-7.9 0,-6.5 -2.1,-9.1 -7.5,-9.1 -2.1,0 -3.9,0.1 -3.9,0.2 z"
           id="path12"
           inkscape:connector-curvature="0"
           style="fill:#000000;stroke:none" />
        <path
           sodipodi:nodetypes="ccccccc"
           d="m 157.6,9.1344 0,93.3036 -141.6,0 0,3.98733 145.6,0 0,-97.29093 z"
           id="path14"
           inkscape:connector-curvature="0"
           style="fill:#000000;stroke:none" />
        <path
           sodipodi:nodetypes="ccccccc"
           d="m 165.6,9.1344 0,101.27827 -149.6,0 0,3.98733 153.6,0 0,-105.2656 z"
           id="path16"
           inkscape:connector-curvature="0"
           style="fill:#000000;stroke:none" />
      </g>
    </g>
  </g>
</svg>
