<?xml version="1.0" encoding="UTF-8"?>
<svg xmlns="http://www.w3.org/2000/svg" xmlns:xlink="http://www.w3.org/1999/xlink" width="48px" height="48px" viewBox="0 0 48 48" version="1.1">
<defs>
<linearGradient id="linear0" gradientUnits="userSpaceOnUse" x1="541.33502" y1="104.50665" x2="606.91248" y2="303.14029" gradientTransform="matrix(-0.113738,0,0,0.113732,98.309054,1.730781)">
<stop offset="0" style="stop-color:rgb(100%,100%,100%);stop-opacity:0;"/>
<stop offset="1" style="stop-color:rgb(100%,100%,100%);stop-opacity:0.27451;"/>
</linearGradient>
</defs>
<g id="surface1">
<path style=" stroke:none;fill-rule:evenodd;fill:rgb(32.54902%,36.470588%,42.352941%);fill-opacity:1;" d="M 24 0 C 21.863281 5.238281 20.574219 8.671875 18.195312 13.753906 C 19.652344 15.300781 21.4375 17.089844 24.34375 19.125 C 21.21875 17.839844 19.097656 16.550781 17.503906 15.210938 C 14.460938 21.5625 9.679688 30.609375 0 48 C 6.390625 44.3125 11.566406 41.804688 16.320312 40.484375 L 16.320312 40.273438 C 16.683594 38.265625 16.90625 35.929688 16.90625 33.40625 C 16.90625 32.859375 16.894531 32.328125 16.875 31.800781 L 26.878906 31.800781 L 26.878906 31.320312 L 16.859375 31.320312 C 16.78125 29.597656 16.59375 27.976562 16.335938 26.535156 C 18.542969 27.015625 21.257812 27.300781 24.195312 27.300781 C 26.894531 27.300781 29.386719 27.050781 31.484375 26.640625 C 31.136719 28.625 30.945312 30.941406 30.945312 33.40625 C 30.945312 35.980469 31.164062 38.371094 31.546875 40.410156 C 31.589844 40.421875 31.632812 40.429688 31.679688 40.441406 L 31.679688 40.5 C 36.433594 41.820312 41.613281 44.3125 48 48 C 46.519531 45.277344 45.195312 42.824219 43.933594 40.484375 C 41.949219 38.945312 39.867188 36.941406 35.640625 34.769531 C 38.546875 35.523438 40.632812 36.390625 42.253906 37.363281 C 29.429688 13.488281 28.398438 10.320312 24 0 Z M 21.121094 36.601562 L 21.121094 37.078125 L 26.398438 37.078125 L 26.398438 39.511719 C 26.558594 39.523438 26.71875 39.539062 26.878906 39.554688 L 26.878906 36.601562 Z M 21.121094 36.601562 "/>
<path style=" stroke:none;fill-rule:evenodd;fill:rgb(100%,100%,100%);fill-opacity:0.164706;" d="M 37.507812 28.527344 C 27.105469 14.410156 24.695312 3.027344 24.082031 0.308594 C 29.632812 13.109375 29.59375 13.269531 37.507812 28.527344 Z M 37.507812 28.527344 "/>
<path style=" stroke:none;fill-rule:evenodd;fill:url(#linear0);" d="M 24.085938 0.203125 C 23.820312 0.859375 23.5625 1.496094 23.316406 2.101562 C 23.042969 2.773438 22.78125 3.414062 22.523438 4.042969 C 22.265625 4.671875 22.007812 5.285156 21.757812 5.886719 C 21.503906 6.492188 21.246094 7.089844 20.988281 7.691406 C 20.730469 8.292969 20.46875 8.902344 20.191406 9.519531 C 19.914062 10.140625 19.628906 10.769531 19.324219 11.425781 C 19.019531 12.082031 18.703125 12.757812 18.363281 13.46875 C 18.316406 13.570312 18.257812 13.679688 18.210938 13.78125 C 19.664062 15.320312 21.453125 17.101562 24.34375 19.125 C 21.226562 17.84375 19.101562 16.558594 17.507812 15.222656 C 17.425781 15.390625 17.351562 15.542969 17.265625 15.714844 C 17.15625 15.941406 17.019531 16.199219 16.902344 16.433594 C 16.84375 16.554688 16.78125 16.6875 16.722656 16.808594 C 15.214844 19.882812 13.285156 23.640625 10.683594 28.503906 C 16.769531 25.074219 23.335938 20.128906 35.261719 24.386719 C 34.664062 23.253906 34.113281 22.191406 33.597656 21.191406 C 33.082031 20.195312 32.601562 19.257812 32.15625 18.375 C 31.710938 17.492188 31.300781 16.65625 30.914062 15.867188 C 30.527344 15.078125 30.171875 14.332031 29.835938 13.617188 C 29.5 12.902344 29.183594 12.214844 28.886719 11.554688 C 28.589844 10.894531 28.304688 10.261719 28.035156 9.636719 C 27.769531 9.015625 27.511719 8.402344 27.257812 7.792969 C 27.003906 7.183594 26.757812 6.578125 26.511719 5.964844 C 26.453125 5.808594 26.386719 5.648438 26.324219 5.488281 C 25.628906 3.851562 24.917969 2.15625 24.085938 0.203125 Z M 24.085938 0.203125 "/>
</g>
</svg>
