<?xml version="1.0" encoding="UTF-8" standalone="no"?>
<!-- Created with Inkscape (http://www.inkscape.org/) -->

<svg
   xmlns:dc="http://purl.org/dc/elements/1.1/"
   xmlns:cc="http://creativecommons.org/ns#"
   xmlns:rdf="http://www.w3.org/1999/02/22-rdf-syntax-ns#"
   xmlns:svg="http://www.w3.org/2000/svg"
   xmlns="http://www.w3.org/2000/svg"
   xmlns:sodipodi="http://sodipodi.sourceforge.net/DTD/sodipodi-0.dtd"
   xmlns:inkscape="http://www.inkscape.org/namespaces/inkscape"
   width="512"
   height="512"
   id="svg2985"
   version="1.1"
   inkscape:version="0.48.4 r9939"
   sodipodi:docname="ctwm.svg">
  <defs
     id="defs2987" />
  <sodipodi:namedview
     id="base"
     pagecolor="#ffffff"
     bordercolor="#666666"
     borderopacity="1.0"
     inkscape:pageopacity="0.0"
     inkscape:pageshadow="2"
     inkscape:zoom="1.4142136"
     inkscape:cx="279.32666"
     inkscape:cy="267.39181"
     inkscape:current-layer="layer1"
     showgrid="true"
     inkscape:document-units="px"
     inkscape:grid-bbox="true"
     inkscape:window-width="1347"
     inkscape:window-height="1002"
     inkscape:window-x="140"
     inkscape:window-y="80"
     inkscape:window-maximized="0" />
  <metadata
     id="metadata2990">
    <rdf:RDF>
      <cc:Work
         rdf:about="">
        <dc:format>image/svg+xml</dc:format>
        <dc:type
           rdf:resource="http://purl.org/dc/dcmitype/StillImage" />
        <dc:title></dc:title>
      </cc:Work>
    </rdf:RDF>
  </metadata>
  <g
     id="layer1"
     inkscape:label="Layer 1"
     inkscape:groupmode="layer"
     transform="translate(0,448)">
    <path
       style="fill:none;stroke:#ff143f;stroke-width:28.54626083;stroke-linecap:round;stroke-linejoin:round;stroke-miterlimit:4;stroke-opacity:1;stroke-dasharray:none"
       d="m 120.20213,-234.56435 c -1.54083,-1.32001 -2.17146,-2.6929 -3.18039,-4.84444 -0.30288,-0.64591 -0.55226,-1.43107 -0.90868,-1.93778 -0.12602,-0.17924 -0.31887,0.14437 -0.45433,0 -0.38315,-0.40851 -0.52555,-1.52925 -0.90868,-1.93777 -0.13547,-0.14436 -0.31888,0.14436 -0.45434,0 -1.89086,-2.01614 0.4857,0.0668 -0.45433,-1.93778 -0.1071,-0.22836 -0.31889,0.14438 -0.45435,0 -0.5452,-0.58133 -0.8178,-2.32532 -1.36302,-2.90666 -0.13546,-0.14436 -0.34725,0.22837 -0.45434,0 -0.10708,-0.22836 0.0677,-0.68002 0,-0.96888 -0.0958,-0.40853 -0.30289,-0.64592 -0.45434,-0.9689 -0.15144,-0.32296 -0.26277,-0.76463 -0.45433,-0.96888 -0.13546,-0.14437 -0.38661,0.28886 -0.45434,0 -0.13546,-0.57773 0.0958,-1.325 0,-1.93779 -0.11493,-0.73517 -1.6086,-2.98507 -1.81737,-3.87554 -0.0677,-0.28886 0.10709,-0.74052 0,-0.96889 -0.10709,-0.22836 -0.34725,0.22837 -0.45433,0 -0.21418,-0.45673 0.13545,-1.36003 0,-1.93777 -0.0958,-0.40853 -0.35856,-0.56036 -0.45435,-0.96889 -0.0677,-0.28887 0.10709,-0.74052 0,-0.96889 -0.1071,-0.22837 -0.34725,0.22837 -0.45434,0 -0.10709,-0.22837 0.10709,-0.74052 0,-0.96889 -0.10709,-0.22835 -0.34725,0.22837 -0.45434,0 -0.10709,-0.22835 0.10709,-0.74052 0,-0.96889 -0.10709,-0.22836 -0.34726,0.22837 -0.45434,0 -0.10709,-0.22836 0.10708,-0.74051 0,-0.96888 -0.94005,-2.00467 0.0367,3.06338 -0.90867,-0.96889 -0.0677,-0.28887 0.10709,-0.74053 0,-0.96889 -1.77318,-3.78132 -0.24401,0.22428 -1.36304,-0.96889 -0.19156,-0.20425 -0.26275,-0.76462 -0.45433,-0.96889 -0.13546,-0.14435 -0.34725,0.22837 -0.45434,0 -0.10707,-0.22835 0.10709,-0.74051 0,-0.96889 -0.10707,-0.22836 -0.34725,0.22838 -0.45434,0 -0.10708,-0.22836 0.10709,-0.74051 0,-0.96888 -0.10708,-0.22836 -0.31887,0.14436 -0.45433,0 -0.38315,-0.40852 -0.52555,-1.52925 -0.90869,-1.93776 -0.13546,-0.14438 -0.31887,0.14436 -0.45433,0 -0.54521,-0.58135 -0.81781,-2.32534 -1.363013,-2.90667 -0.13546,-0.14437 -0.347263,0.22836 -0.454345,0 -0.107093,-0.22838 0.107082,-0.74053 0,-0.96889 -0.107093,-0.22837 -0.347253,0.22836 -0.454335,0 -0.107093,-0.22837 0.107082,-0.74053 0,-0.96889 -0.940058,-2.00467 0.03669,3.06339 -0.908681,-0.96888 -0.0677,-0.28887 0.107082,-0.74053 0,-0.9689 -0.107093,-0.22836 -0.347253,0.22837 -0.454345,0 -0.107094,-0.22836 0.107092,-0.74052 0,-0.96889 -0.214176,-0.45674 -0.637773,0.28887 -0.908681,0 -0.836452,-0.89185 -0.07226,-2.0148 -0.908681,-2.90666 -0.13545,-0.14437 -0.318886,0.14437 -0.454335,0 -0.191564,-0.20426 -0.262781,-0.76462 -0.454345,-0.96888 -0.13545,-0.14438 -0.347243,0.22836 -0.454336,0 -0.107092,-0.22837 0.107093,-0.74053 0,-0.9689 -0.107092,-0.22836 -0.347253,0.22837 -0.454345,0 -0.107083,-0.22836 0.107092,-0.74051 0,-0.96888 -0.107083,-0.22837 -0.318886,0.14436 -0.454335,0 -0.191565,-0.20426 -0.262782,-0.76463 -0.454346,-0.96888 -0.270908,-0.28888 -0.694495,0.45673 -0.908681,0 -0.107082,-0.22838 0.107093,-0.74054 0,-0.9689 -0.107082,-0.22837 -0.318876,0.14437 -0.454335,0 -0.191565,-0.20426 -0.26277,-0.76462 -0.454345,-0.96888 -0.135449,-0.14438 -0.318876,0.14436 -0.454336,0 -0.383129,-0.40853 -0.52554,-1.52926 -0.90868,-1.93778 -0.135459,-0.14436 -0.347254,0.22836 -0.454336,0 -0.107082,-0.22837 0.107082,-0.74052 0,-0.96888 -0.214175,-0.45675 -0.637762,0.28886 -0.90867,0 -0.191585,-0.20427 -0.262781,-0.76464 -0.454346,-0.96889 -0.363468,-0.38756 -0.999547,0.38754 -1.363016,0 -0.191574,-0.20427 -0.251156,-0.82446 -0.454345,-0.96889 -0.287357,-0.20427 -0.614827,0.15656 -0.908681,0 -0.328534,-0.17519 -0.587413,-0.74052 -0.90868,-0.96889 -0.143669,-0.10213 -0.318886,0.14436 -0.454336,0 -0.191574,-0.20426 -0.26277,-0.76463 -0.454345,-0.96889 -0.270908,-0.28887 -0.694506,0.45673 -0.908681,0 -0.107082,-0.22837 0.0677,-0.68003 0,-0.96888 -0.459442,-1.95957 -1.054376,-0.31071 -1.363016,-0.96889 -0.107092,-0.22837 0.107093,-0.74054 0,-0.96889 -0.214175,-0.45674 -0.637761,0.28886 -0.90868,0 -0.191565,-0.20426 -0.262771,-0.76463 -0.454336,-0.96888 -0.180153,-0.19205 -1.270142,0.19807 -1.363026,0 -0.107082,-0.22838 0.107093,-0.74053 0,-0.9689 -0.214175,-0.45674 -0.6945,0.45673 -0.908676,0 -0.107088,-0.22836 0.107088,-0.74053 0,-0.96889 -0.140682,-0.3 -2.131017,0.30001 -2.271698,0 -0.10709,-0.22836 0.107088,-0.74052 0,-0.96887 -0.10709,-0.22838 -0.302891,0 -0.454341,0 -0.45434,0 -0.908678,0 -1.363019,0 -2.423145,0 -4.846291,0 -7.269437,0 -1.060127,0 -2.120251,0 -3.180379,0 -0.204615,0 -1.224749,-0.14748 -1.363019,0 -0.191565,0.20424 -0.262773,0.76462 -0.454339,0.96887 -0.270916,0.28887 -0.637765,-0.28887 -0.90868,0 -0.191566,0.20426 -0.262774,0.76463 -0.454339,0.96889 -0.270916,0.28887 -0.637765,-0.28887 -0.908681,0 -0.191565,0.20427 -0.262773,0.76463 -0.454339,0.9689 -0.270915,0.28885 -0.637764,-0.28887 -0.90868,0 -0.191566,0.20425 -0.262773,0.76462 -0.454339,0.96888 -0.270916,0.28886 -0.694502,-0.45674 -0.90868,0 -0.107089,0.22835 0.107088,0.74052 0,0.96889 -0.107089,0.22836 -0.347251,-0.22837 -0.454339,0 -0.107089,0.22836 0.107088,0.74051 0,0.96889 -0.107089,0.22836 -0.347251,-0.22838 -0.45434,0 -0.107089,0.22836 0.107089,0.74051 0,0.96888 -0.107089,0.22836 -0.45434,0.32296 -0.45434,0 0,-0.45674 0.668516,-0.96888 0.45434,-0.96888 -1.096992,0 -0.671281,1.20019 -1.36302,1.93777 -0.135458,0.14436 -0.347252,-0.22836 -0.454339,0 -0.10709,0.22837 0.107087,0.74051 0,0.96889 -0.10709,0.22836 -0.347251,-0.22838 -0.45434,0 -0.10709,0.22836 0.107089,0.74051 0,0.96889 -0.10709,0.22835 -0.318884,-0.14437 -0.45434,0 -0.191566,0.20425 -0.262773,0.76462 -0.45434,0.96889 -0.135457,0.14435 -0.318882,-0.14438 -0.45434,0 -0.191567,0.20425 -0.262772,0.76462 -0.454339,0.96888 -0.135459,0.14436 -0.302893,0 -0.45434,0 -0.151448,0 -0.45434,0.32297 -0.45434,0 0,-0.32297 0.45434,-0.32297 0.45434,0 0,2.01614 -0.637151,0.38984 -0.90868,0.96889 -0.107089,0.22836 0.107089,0.74053 0,0.96889 -0.227169,0.48443 -1.13585,-0.48445 -1.363019,0 -0.940046,2.00466 1.436513,-0.0783 -0.45434,1.93778 -0.270916,0.28886 -0.694501,-0.45674 -0.908679,0 -0.940046,2.00465 1.436513,-0.0783 -0.45434,1.93776 -0.270916,0.28887 -0.637765,-0.28886 -0.908679,0 -0.191567,0.20427 -0.262773,0.76463 -0.454341,0.9689 -1.211572,0 0.151447,-0.32297 -0.454341,0.96888 -0.107087,0.22837 -0.34725,-0.22837 -0.454338,0 -0.107089,0.22837 0.135458,0.82445 0,0.96889 -0.270915,0.28886 -0.637765,-0.28887 -0.908681,0 -0.135457,0.14436 0.10709,0.74052 0,0.9689 -0.214177,0.45673 -0.694501,-0.45674 -0.908679,0 -0.107088,0.22835 0.107088,0.74051 0,0.96887 -0.107088,0.22837 -0.318882,-0.14436 -0.45434,0 -0.191566,0.20426 -0.262773,0.76463 -0.454338,0.96889 -0.135459,0.14436 -0.318883,-0.14435 -0.454341,0 -0.191567,0.20427 -0.262773,0.76463 -0.454341,0.9689 -0.135456,0.14436 -0.31888,-0.14438 -0.454338,0 -0.191567,0.20425 -0.262773,0.76462 -0.45434,0.96888 -0.270916,0.28886 -0.694502,-0.45674 -0.908679,0 -0.10709,0.22836 0.107088,0.74052 0,0.96889 -0.10709,0.22836 -0.318882,-0.14436 -0.454341,0 -0.191567,0.20426 -0.262773,0.76462 -0.454341,0.96889 -0.135456,0.14436 -0.34725,-0.22838 -0.454337,0 -0.10709,0.22836 0.107087,0.74052 0,0.96888 -0.10709,0.22837 -0.347251,-0.22836 -0.454341,0 -0.107088,0.22837 0.10709,0.74053 0,0.96889 -0.214178,0.45673 -0.694501,-0.45673 -0.908679,0 -0.10709,0.22837 0.107088,0.74052 0,0.9689 -0.10709,0.22835 -0.302894,0 -0.454341,0 0,0.32296 0.06774,0.68 0,0.96887 -0.347928,1.48394 -0.80964,0.7577 -1.363019,1.93777 -0.940046,2.00468 1.436515,-0.0782 -0.45434,1.93778 -0.135456,0.14437 -0.318881,-0.14436 -0.454339,0 -0.545208,0.58134 -0.817812,2.32533 -1.363019,2.90667 -0.135458,0.14436 -0.347251,-0.22836 -0.454341,0 -0.107088,0.22837 0.10709,0.74052 0,0.96888 -0.107088,0.22837 -0.347251,-0.22836 -0.454339,0 -0.107089,0.22837 0.06773,0.68003 0,0.96889 -0.09579,0.40853 -0.358557,0.56037 -0.454339,0.96889 -0.06773,0.28887 0.107088,0.74052 0,0.96889 -0.107091,0.22836 -0.347251,-0.22837 -0.454341,0 -0.107088,0.22836 0.10709,0.74053 0,0.96889 -0.107088,0.22836 -0.347251,-0.22836 -0.454339,0 -0.214177,0.45674 0.214176,1.48104 0,1.93777 -0.10709,0.22837 -0.347251,-0.22836 -0.45434,0 -0.10709,0.22837 0.107089,0.74054 0,0.96889 -0.10709,0.22837 -0.347251,-0.22835 -0.454341,0 -0.107087,0.22837 0.10709,0.74052 0,0.96888 -0.107087,0.22838 -0.347251,-0.22836 -0.454338,0 -0.10709,0.22838 0.06773,0.68003 0,0.9689 -0.191568,0.81705 -0.717114,1.12072 -0.908681,1.93776 -0.06773,0.28888 0.10709,0.74054 0,0.9689 -0.107088,0.22837 -0.347251,-0.22836 -0.454339,0 -0.10709,0.22837 0.107088,0.74052 0,0.96889 -0.10709,0.22836 -0.347251,-0.22837 -0.454341,0 -0.214177,0.45674 0.214179,1.48105 0,1.93778 -0.107088,0.22836 -0.34725,-0.22837 -0.454339,0 -0.214178,0.45673 0.214178,1.48103 0,1.93776 -0.107088,0.22838 -0.347251,-0.22835 -0.454339,0 -0.227171,0.48445 0.227169,2.42223 0,2.90667 -0.10709,0.22837 -0.347251,-0.22836 -0.454341,0 -0.107089,0.22837 0.10709,0.74053 0,0.96889 -0.107089,0.22837 -0.34725,-0.22836 -0.454339,0 -0.214178,0.45673 0.214178,1.48104 0,1.93777 -0.107089,0.22838 -0.347252,-0.22835 -0.45434,0 -0.214177,0.45674 0.214178,1.48105 0,1.93778 -0.107089,0.22836 -0.347251,-0.22836 -0.45434,0 -0.09289,0.19808 0.09006,2.52251 0,2.90666 -0.191567,0.81704 -0.717112,1.12074 -0.908679,1.93778 -0.135457,0.57773 0.214177,1.48105 0,1.93778 -0.10709,0.22837 -0.347251,-0.22836 -0.454341,0 -0.107089,0.22837 0,0.64591 0,0.96888 0,0.32298 0,0.64593 0,0.96889 0,2.58371 0.151447,-0.32296 -0.454339,0.96889 -0.109329,0.23315 0.109329,3.64241 0,3.87555 -0.107088,0.22837 -0.38661,-0.28886 -0.454339,0 -0.135458,0.57773 0,1.29186 0,1.93778 0,0.32297 0.107087,0.74052 0,0.96889 -0.10709,0.22836 -0.347252,-0.22837 -0.454341,0 -0.214178,0.45673 0.135458,1.36004 0,1.93776 -0.09579,0.40853 -0.358557,0.56038 -0.454339,0.96889 -0.135458,0.57774 0.214177,1.48105 0,1.93778 -0.107089,0.22837 -0.347252,-0.22837 -0.45434,0 -0.109328,0.23316 0.109329,3.6424 0,3.87555 -0.10709,0.22838 -0.347252,-0.22836 -0.454341,0 -0.01462,0.0312 0,2.67169 0,2.90667 0,0.32296 0,1.29186 0,0.96888 0,-1.53497 0.135459,-3.77325 -0.454338,0 -0.09579,0.6128 0.214177,1.48106 0,1.93778 -0.107089,0.22837 -0.347252,-0.22837 -0.45434,0 -0.227171,0.48445 0.22717,2.42222 0,2.90666 -0.10709,0.22838 -0.347252,-0.22836 -0.454341,0 -0.107088,0.22838 0.107089,0.74052 0,0.96889 -0.107088,0.22837 -0.34725,-0.22837 -0.454339,0 -0.227169,0.48446 0.22717,2.42223 0,2.90667 -0.107089,0.22836 -0.347251,-0.22838 -0.45434,0 -0.107089,0.22836 0,0.64592 0,0.96889 0,1.6148 0,3.22963 0,4.84444 0,0.32296 0.107089,0.74052 0,0.96888 -0.107089,0.22837 -0.347252,-0.22836 -0.45434,0 -0.107088,0.22837 0,0.64591 0,0.96888 0,0.32298 0,0.64593 0,0.9689 0,1.6148 0,3.22963 0,4.84443 0,0.32297 0.107088,0.74052 0,0.9689 -0.107088,0.22836 -0.34725,-0.22838 -0.454339,0 -0.107089,0.22836 0,0.64591 0,0.96888 0,1.61481 0,3.22964 0,4.84445 0,0.32297 0.107089,0.74051 0,0.96888 -0.107089,0.22836 -0.347251,-0.22837 -0.45434,0 -0.107089,0.22836 0,0.64592 0,0.96889 0,0.32296 0,0.64591 0,0.96889 0,2.90667 0,5.81332 0,8.71999 0,6.78221 0,13.56442 0,20.34664 0,0.23498 -0.01462,2.8755 0,2.90666 0.107089,0.22837 0.347251,-0.22836 0.45434,0 0.09289,0.19809 -0.09006,2.5225 0,2.90667 0.09578,0.40852 0.358556,0.56037 0.454339,0.96889 0.06774,0.28886 0,0.64592 0,0.96888 0,0.32296 0.151447,0.96889 0,0.96889 -0.151447,0 -0.107088,-1.19725 0,-0.96889 0.239459,0.51064 0.347251,1.25269 0.45434,1.93778 0.09031,0.57772 0,4.87461 0,5.81333 0,0.32296 -0.107089,0.74052 0,0.96889 0.107089,0.22835 0.347251,-0.22837 0.45434,0 0.159483,0.34009 -0.156913,4.17518 0,4.84444 0.09578,0.40851 0.358556,0.56036 0.454339,0.96889 0.123238,0.52558 -0.124316,3.61043 0,3.87554 0.107089,0.22836 0.347251,-0.22837 0.454341,0 0.124317,0.2651 -0.123237,3.34996 0,3.87556 0.09579,0.40851 0.358556,0.56035 0.45434,0.96888 0.123236,0.5256 -0.124318,3.61044 0,3.87555 0.107088,0.22837 0.347251,-0.22836 0.454338,0 0.107089,0.22837 -0.06773,0.68003 0,0.96889 0.09579,0.40852 0.605788,0.64592 0.454341,0.96889 -0.151447,0.32296 -0.454341,-1.42563 -0.454341,-0.96889 0,4.89463 0.349172,0.7446 0.908681,1.93778 0.107089,0.22836 -0.107089,0.74051 0,0.96888 0.107089,0.22837 0.318881,-0.14436 0.454339,0 0.191567,0.20426 0.302894,0.64592 0.454341,0.96889 0.151447,0.32297 0.358556,0.56037 0.454339,0.96889 0.135458,0.57773 -0.214178,1.48104 0,1.93778 0.107089,0.22836 0.34725,-0.22837 0.454339,0 0.214179,0.45673 -0.214177,1.48104 0,1.93777 0.10709,0.22837 0.347251,-0.22837 0.454341,0 0.214177,0.45673 -0.135457,1.36005 0,1.93778 0.09579,0.40852 0.358556,0.56036 0.454339,0.96888 0.06773,0.28887 -0.06773,0.68003 0,0.96889 0.09579,0.40852 0.358557,0.56037 0.45434,0.96889 0.135458,0.577728 -0.214178,1.481041 0,1.937775 0.107089,0.228366 0.347251,-0.228367 0.45434,0 0.940045,2.004668 -1.436514,-0.07828 0.45434,1.937777 0.135457,0.144363 0.34725,-0.228367 0.454339,0 0.10709,0.228366 -0.06773,0.680023 0,0.968886 0.09579,0.408524 0.358558,0.560367 0.454341,0.968888 0.06773,0.288864 -0.10709,0.740522 0,0.968888 0.214177,0.456734 0.694501,-0.456733 0.908678,0 0.10709,0.228367 -0.107088,0.740521 0,0.968888 0.214179,0.456734 0.637764,-0.288865 0.90868,0 0.191567,0.204261 0.262773,0.764627 0.454341,0.968888 0.135457,0.144364 0.318882,-0.144364 0.45434,0 1.00457,1.071125 0.14099,0.601331 0.454338,1.937776 0.09578,0.408521 0.302894,0.645918 0.454341,0.968887 0.151446,0.32297 0.262774,0.764627 0.45434,0.968888 0.135457,0.144364 0.454339,-0.322969 0.454339,0 0,0.322969 -0.454339,-0.322969 -0.454339,0 0,2.016139 0.637152,0.389841 0.90868,0.968888 0.940044,2.004667 -1.436515,-0.07828 0.454339,1.937776 0.626697,0.668222 0.406393,-1.173382 0.90868,0.968887 0.06774,0.288865 -0.107091,0.740521 0,0.968889 0.107088,0.228367 0.34725,-0.228368 0.454339,0 0.107089,0.228367 -0.107089,0.74052 0,0.968887 0.107089,0.228366 0.347252,-0.228367 0.45434,0 0.107089,0.228366 -0.107088,0.740521 0,0.968887 0.107089,0.228367 0.318882,-0.144363 0.45434,0 0.191567,0.204262 0.262773,0.764628 0.454339,0.968889 0.135458,0.144364 0.347252,-0.228366 0.45434,0 0.10709,0.228366 -0.107088,0.740521 0,0.968888 0.10709,0.228366 0.318882,-0.144365 0.454341,0 0.191566,0.20426 0.262772,0.764626 0.454338,0.968887 0.135458,0.144365 0.347253,-0.228367 0.45434,0 0.10709,0.228367 -0.107087,0.740521 0,0.968887 0.10709,0.228367 0.347251,-0.228366 0.454341,0 0.107088,0.228367 -0.10709,0.740522 0,0.968888 0.107088,0.228368 0.454338,0.322969 0.454338,0 0,-0.741954 -1.647113,-2.543619 0,0.968889 0.214178,0.456733 0.694504,-0.456734 0.908682,0 0.107087,0.228367 -0.10709,0.74052 0,0.968887 0.107087,0.228367 0.302891,0 0.454337,0 0.151448,0 0.302894,0 0.454341,0 0.151447,0 0.302894,0 0.454341,0 0.151447,0 0.34725,-0.228367 0.454338,0 0.10709,0.228367 -0.107088,0.740521 0,0.968888 0.214178,0.456734 0.637766,-0.288864 0.908681,0 0.191566,0.204262 0.262773,0.764627 0.454338,0.968888 0.363473,0.387555 0.999549,-0.387556 1.36302,0 0.191567,0.204261 0.262773,0.764627 0.45434,0.968887 0.135459,0.144365 0.318883,-0.144364 0.454341,0 0.191566,0.204262 0.262772,0.764628 0.454338,0.968888 0.135458,0.144364 0.318883,-0.144363 0.454341,0 0.191567,0.204262 0.262773,0.764627 0.45434,0.968889 0.246474,0.262801 1.693042,-0.265108 1.817358,0 0.107091,0.228367 -0.107088,0.74052 0,0.968888 0.107091,0.228367 0.318883,-0.144366 0.454341,0 0.191567,0.20426 0.262773,0.764626 0.45434,0.968887 0.135456,0.144364 0.318881,-0.144365 0.454338,0 0.191568,0.204261 0.262774,0.764626 0.454341,0.968887 0.270916,0.288866 0.694501,-0.456733 0.90868,0 0.107089,0.228368 -0.107089,0.740522 0,0.968889 0.107089,0.228367 0.318882,-0.144365 0.454339,0 0.191567,0.20426 0.262774,0.764627 0.45434,0.968888 0.135457,0.144364 0.45434,-0.322969 0.45434,0 0,0.322969 -0.605787,0 -0.45434,0 0.45434,0 0.90868,0 1.36302,0 0.151446,0 0.34725,-0.228367 0.454339,0 0.10709,0.228366 -0.107089,0.74052 0,0.968888 0.214178,0.456733 0.90868,-0.645919 0.90868,0 0,0.397728 -2.362965,-1.033765 0.45434,0.968888 0.28735,0.20426 0.694502,-0.456734 0.908679,0 0.107089,0.228366 -0.107088,0.74052 0,0.968886 0.109329,0.233154 1.70803,-0.233152 1.81736,0 0.107088,0.228368 -0.107089,0.740522 0,0.968888 0.214177,0.456734 0.908678,-0.645918 0.908678,0 0,0.322969 -0.605787,0 -0.454339,0 0.302893,0 0.605786,0 0.90868,0 0.151447,0 0.318882,-0.144364 0.454339,0 0.191567,0.204261 0.262772,0.764628 0.45434,0.968888 0.270915,0.288865 0.637764,-0.288864 0.908679,0 0.191568,0.204261 0.262773,0.764627 0.45434,0.968889 0.135458,0.144364 0.302894,0 0.454341,0 0.151447,0 0.302892,0 0.454339,0 0.151448,0 0.347251,-0.228367 0.454339,0 0.10709,0.228367 0.151447,0.968887 0,0.968887 -0.151446,0 -0.151446,-0.968887 0,-0.968887 0.214178,0 0.262774,0.764627 0.454341,0.968887 0.180142,0.192034 1.270135,-0.19808 1.36302,0 0.107088,0.228367 -0.107089,0.74052 0,0.968887 0.109328,0.233154 1.708029,-0.233153 1.817358,0 0.107089,0.228368 -0.107089,0.740522 0,0.968889 0.214178,0.456733 0.90868,-0.645919 0.90868,0 0,0.322968 -0.605787,0 -0.45434,0 0.302892,0 0.605787,0 0.908679,0 0.151447,0 0.45434,-0.32297 0.45434,0 0,0.322968 -0.605786,0 -0.45434,0 0.605787,0 1.211574,0 1.817359,0 1.665913,0 3.331827,0 4.997739,0 1.716394,0 -2.019289,0 0.908679,0 0.15145,0 0.302891,0 0.454341,0 0.151449,0 0.347251,0.228366 0.454338,0 0.107088,-0.228367 -0.107087,-0.740521 0,-0.968889 0.107088,-0.228367 0.318883,0.144366 0.45434,0 0.383135,-0.408521 0.525544,-1.529253 0.90868,-1.937774 0.135457,-0.144365 0.30289,0 0.45434,0 0.15145,0 0.30289,0 0.45434,0 0.757229,0 1.514472,0 2.271701,0 0.151442,0 0.318876,0.144364 0.454336,0 0.191574,-0.204262 0.26277,-0.764628 0.454344,-0.968889 0.363469,-0.387555 0.999548,0.387556 1.363016,0 0.191565,-0.20426 0.262771,-0.764627 0.454336,-0.968888 0.313838,-0.334615 2.112218,0.340099 2.271706,0 0.107083,-0.228366 -0.107092,-0.74052 0,-0.968888 0.214176,-0.456733 0.637763,0.288864 0.908681,0 0.38313,-0.408522 0.525542,-1.529252 0.908681,-1.937774 0.13545,-0.144365 0.318876,0.144364 0.454335,0 0.191564,-0.204262 0.262771,-0.764628 0.454345,-0.968888 0.13545,-0.144365 0.318877,0.144364 0.454336,0 0.191565,-0.204261 0.26277,-0.764628 0.454345,-0.968888 0.135449,-0.144365 0.454335,-0.32297 0.454335,0 0,0.322968 -0.605797,0 -0.454335,0 0.302884,0 0.605787,0 0.908681,0 0.151442,0 0.347243,0.228367 0.454335,0 0.107083,-0.228367 -0.107092,-0.740521 0,-0.968889 0.214175,-0.456733 0.694496,0.456734 0.908671,0 0.107092,-0.228366 -0.107083,-0.74052 0,-0.968887 0.227178,-0.484443 1.135858,0.484444 1.363016,0 0.107092,-0.228367 -0.107073,-0.74052 0,-0.968887 0.214185,-0.456735 0.637771,0.288863 0.90868,0 0.191575,-0.204262 0.262781,-0.764628 0.454346,-0.968888 0.135449,-0.144364 0.347253,0.228367 0.454335,0 0.107093,-0.228367 -0.13545,-0.824446 0,-0.968889 0.165904,-0.176918 2.183272,0.188546 2.271707,0 0.107082,-0.228366 -0.107093,-0.74052 0,-0.968888 0.109322,-0.233153 1.708029,0.233154 1.817361,0 0.107083,-0.228367 -0.107092,-0.74052 0,-0.968887 0.214165,-0.456733 0.637762,0.288864 0.908681,0 1.890848,-2.016139 -0.485713,0.06686 0.454335,-1.937776 0.107093,-0.228367 0.302894,0 0.454346,0 0.151441,0 0.454335,-0.322968 0.454335,0 0,0.32297 -0.454335,0.32297 -0.454335,0 0,-0.456733 0.358543,-0.560366 0.454335,-0.968887 0.0677,-0.288865 0,-0.64592 0,-0.968889 0,-0.322968 0,-0.645918 0,-0.968888 0,-0.793034 -0.06648,-5.529829 0,-5.813325 0.0677,-0.288865 0.347253,0.228367 0.454345,0 0.227158,-0.484445 -0.227178,-2.42222 0,-2.906664 0.214165,-0.456734 0.694496,0.456734 0.908673,0 0.10708,-0.228367 -0.10708,-0.740522 0,-0.968888 0.21418,-0.456734 0.6945,0.456733 0.90867,0 0.21418,-0.456734 -0.21417,-1.481041 0,-1.937776 0.21418,-0.456734 0.63777,0.288864 0.90869,0 1.89086,-2.016139 -0.48572,0.06685 0.45433,-1.937776 0.10709,-0.228366 0.34727,0.228368 0.45434,0 0.10709,-0.228366 -0.10707,-0.740521 0,-0.968887 0.21418,-0.456733 0.69451,0.456733 0.90867,0 0.1071,-0.228367 -0.10707,-0.740521 0,-0.968888 0.2142,-0.456734 0.69452,0.456734 0.90869,0 0.10709,-0.228367 -0.10709,-0.740521 0,-0.968888 0.10709,-0.228366 0.34726,0.228367 0.45435,0 0.10709,-0.228366 -0.10709,-0.740521 0,-0.968888 0.10709,-0.228366 0.34725,0.228367 0.45433,0 0.10709,-0.228366 -0.10708,-0.74052 0,-0.968888 0.10709,-0.228366 0.31888,0.144366 0.45434,0 0.38314,-0.408522 0.52554,-1.529253 0.90868,-1.937775 0.13545,-0.144365 0.34724,0.228366 0.45434,0 0.10709,-0.228367 0,-0.645919 0,-0.968888 0,-0.322969 0,-0.645919 0,-0.968887"
       id="path3074"
       inkscape:connector-curvature="0" />
    <g
       id="g3898"
       transform="matrix(1,0,0,0.89276595,-16.970563,-19.567645)">
      <path
         inkscape:connector-curvature="0"
         id="path3076"
         d="m 151.94193,-315.54228 c 3.09693,0 6.19385,0 9.29078,0 0.18956,0 2.04385,-0.0431 2.06462,0 0.12166,0.2526 -0.12166,0.81911 0,1.07171 0.12166,0.2526 0.3441,0 0.51616,0 0.17205,0 0.3441,0 0.51615,0 2.06462,0 4.12924,0 6.19386,0 3.61308,0 7.22617,0 10.83925,0 1.54846,0 3.09693,0 4.64539,0 0.17206,0 0.3441,0 0.51616,0 0.17205,0 0.3945,0.2526 0.51615,0 0.12166,-0.2526 -0.12165,-0.81911 0,-1.07171 0.12166,-0.2526 0.3441,0 0.51616,0 0.17205,0 0.3441,0 0.51615,0 1.54847,0 3.09693,0 4.6454,0 7.86278,0 13.08027,0 20.13003,0 4.3013,0 8.60258,0 12.90387,0 0.18956,0 2.04385,0.0431 2.06462,0 0.12166,-0.2526 -0.12166,-0.8191 0,-1.07171 0.12166,-0.2526 0.3441,0 0.51616,0 1.03231,0 2.06462,0 3.09693,0 1.03231,0 2.06462,0 3.09692,0 0.17206,0 0.3945,0.25261 0.51616,0 0.12166,-0.2526 -0.12166,-0.8191 0,-1.0717 0.12166,-0.2526 0.51615,-0.35724 0.51615,0 0,0.35724 -0.68821,0 -0.51615,0 1.03231,0 2.06462,0 3.09693,0 0.17205,0 0.51615,-0.35724 0.51615,0 0,0.35724 -0.68821,0 -0.51615,0 0.3441,0 0.68821,0 1.03231,0 0.17205,0 0.3441,0 0.51615,0 0.17206,0 0.51616,-0.35724 0.51616,0 0,0.35724 -0.68821,0 -0.51616,0 0.3441,0 0.68821,0 1.03231,0 0.17206,0 0.51616,-0.35724 0.51616,0 0,0.35724 -0.3441,0 -0.51616,0"
         style="fill:none;stroke:#ff143f;stroke-width:32;stroke-linecap:round;stroke-linejoin:round;stroke-miterlimit:4;stroke-opacity:1;stroke-dasharray:none" />
      <path
         inkscape:connector-curvature="0"
         id="path3078"
         d="m 199.09355,-40.670541 c 0,-2.389726 0,-4.779453 0,-7.169178 0,-0.398296 0.1122,-0.913235 0,-1.194864 -0.11222,-0.281629 -0.36388,0.281629 -0.4761,0 -0.11222,-0.281629 0,-0.796568 0,-1.194863 0,-3.186294 0,-6.372612 0,-9.558905 0,-1.593159 0,-3.186294 0,-4.779453 0,-0.398296 -0.15869,-1.194863 0,-1.194863 0.15871,0 0.15871,1.194863 0,1.194863 -0.22442,0 -0.37572,-0.691061 -0.47608,-1.194863 -0.0709,-0.356237 0.1122,-0.913235 0,-1.194864 -0.11222,-0.281629 -0.33415,0.178035 -0.4761,0 -0.20074,-0.251901 -0.31739,-0.796567 -0.47609,-1.194862 -0.1587,-0.398297 -0.31739,-0.796568 -0.47609,-1.194864 -0.1587,-0.398295 -0.37572,-0.691061 -0.47609,-1.194863 -0.0709,-0.356237 0.11222,-0.913234 0,-1.19486 -0.11221,-0.281628 -0.36388,0.281626 -0.47609,0 -0.22443,-0.563256 0.10037,-1.634022 0,-2.389735 -0.11221,-0.844884 -0.36387,-1.544833 -0.47609,-2.389728 -0.10037,-0.755701 0.14194,-1.677247 0,-2.389723 -0.10037,-0.503808 -0.37572,-0.691059 -0.47609,-1.194867 -0.0725,-0.363641 0,-3.046465 0,-3.58459 0,-2.788016 0,-5.576021 0,-8.364037 0,-0.398293 0,-0.796564 0,-1.194867 0,-0.398293 0.0709,-0.83863 0,-1.194857 -0.10037,-0.503808 -0.37573,-0.691069 -0.47609,-1.194867 -0.0725,-0.363641 0,-3.046476 0,-3.58459 0,-2.389719 0,-4.779459 0,-7.169179 0,-0.53812 0.0725,-3.22094 0,-3.58459 -0.10037,-0.5038 -0.37572,-0.69106 -0.4761,-1.19486 -0.0725,-0.36365 0,-3.04647 0,-3.58459 0,-2.78803 0,-5.57602 0,-8.36405 0,-6.3726 0,-12.7452 0,-19.11781 0,-15.93152 0,-31.863 0,-47.79453 0,-7.96574 0,-15.93151 0,-23.89725 0,-0.28978 -0.0153,-3.54617 0,-3.58459 0.11222,-0.28163 0.36388,0.28163 0.4761,0 0.22442,-0.56327 -0.14195,-1.67726 0,-2.38974 0.10036,-0.50379 0.37572,-0.69105 0.47609,-1.19485 0.14194,-0.71248 -0.14194,-1.67726 0,-2.38974 0.10037,-0.50379 0.37572,-0.69106 0.47609,-1.19485 0.19044,-0.9559 -0.19043,-2.62871 0,-3.58459 0.10037,-0.50381 0.37572,-0.69106 0.47609,-1.19487 0.19044,-0.95588 -0.19044,-2.62869 0,-3.58459 0.10037,-0.5038 0.37572,-0.69106 0.47609,-1.19486 0.0725,-0.36365 0,-3.04647 0,-3.58459 0,-2.78802 0,-5.57602 0,-8.36404 0,-5.17776 0,-10.35547 0,-15.53322 0,-0.83107 0.0861,-5.54221 0,-5.97432 -0.10037,-0.5038 -0.37572,-0.69105 -0.47609,-1.19486 -0.14194,-0.71248 0.22443,-1.82647 0,-2.38973 -0.11221,-0.28162 -0.36387,0.28163 -0.47609,0 -0.0973,-0.24427 0.0944,-3.11083 0,-3.58459 -0.10037,-0.50379 -0.37572,-0.69106 -0.47609,-1.19486 -0.0709,-0.35624 0,-0.79657 0,-1.19486 0,-0.3983 0,-0.79657 0,-1.19487 0,-1.99143 0,-3.98288 0,-5.97431 0,-0.39829 0,-0.79658 0,-1.19487 0,-0.39829 0.11221,-0.91323 0,-1.19485 -0.11221,-0.28164 -0.36387,0.28162 -0.47609,0 -0.11222,-0.28164 0,-0.79658 0,-1.19487 0,-0.39829 0,-0.79656 0,-1.19487 0,-2.38972 0,-4.77945 0,-7.16918 0,-0.39829 0.11222,-0.91323 0,-1.19486 -0.11222,-0.28162 -0.36388,0.28163 -0.4761,0 -0.0153,-0.0385 0,-3.29481 0,-3.58459 0,-2.38972 0,-4.77945 0,-7.16918 0,-0.39829 -0.15869,-1.19486 0,-1.19486 0.15871,0 0,1.59316 0,1.19486 0,-0.79656 0,-1.59316 0,-2.38972"
         style="fill:none;stroke:#ff143f;stroke-width:32.45084;stroke-linecap:round;stroke-linejoin:round;stroke-miterlimit:4;stroke-opacity:1;stroke-dasharray:none" />
    </g>
    <path
       style="fill:none;stroke:#ff143f;stroke-width:31.80537033;stroke-linecap:round;stroke-linejoin:round;stroke-miterlimit:4;stroke-opacity:1;stroke-dasharray:none"
       d="m 230.70313,-201.53608 c 0.34457,1.40969 1.72288,3.52419 1.03372,4.22903 -0.68915,0.70483 -1.57856,-5.34348 -1.03372,-4.22903 0.71035,1.45305 0.99334,3.57647 1.55059,5.28628 0.13515,0.4147 0.4079,0.61147 0.51687,1.05726 0.077,0.31521 -0.12184,0.80805 0,1.05726 0.12182,0.24919 0.39504,-0.24921 0.51685,0 0.12183,0.24919 -0.12181,0.80805 0,1.05725 0.12183,0.24919 0.39505,-0.2492 0.51687,0 0.0234,0.048 0,4.78778 0,5.28628 0,0.35243 -0.12182,0.80806 0,1.05725 0.24365,0.4984 0.72554,-0.31521 1.03373,0 0.21793,0.2229 0.29893,0.83437 0.51686,1.05727 0.1541,0.15752 0.39505,-0.2492 0.51687,0 0.12183,0.24919 -0.12182,0.80805 0,1.05724 0.12183,0.2492 0.39503,-0.24919 0.51686,0 0.12183,0.2492 -0.12183,0.80807 0,1.05727 0.12183,0.24919 0.39504,-0.2492 0.51687,0 0.12437,0.25441 -0.12438,3.9746 0,4.22902 0.12182,0.2492 0.39504,-0.2492 0.51686,0 0.18143,0.37112 -0.1785,4.55599 0,5.28628 0.10897,0.44578 0.4079,0.61148 0.51687,1.05725 0.15409,0.63042 -0.1541,1.48409 0,2.11452 0.10896,0.44578 0.40789,0.61147 0.51685,1.05726 0.077,0.3152 0.1723,1.05725 0,1.05725 -0.17228,0 -0.17228,-1.05725 0,-1.05725 0.24366,0 0.40791,0.61146 0.51688,1.05725 0.15409,0.63043 -0.24366,1.61612 0,2.11451 0.12182,0.2492 0.39503,-0.24919 0.51686,0 0.12182,0.2492 -0.077,0.74205 0,1.05726 0.10897,0.44578 0.4079,0.61147 0.51687,1.05725 0.077,0.31521 -0.077,0.74204 0,1.05726 0.10896,0.44578 0.40789,0.61147 0.51685,1.05726 0.077,0.31521 -0.12182,0.80805 0,1.05725 0.12184,0.2492 0.39505,-0.2492 0.51688,0 0.25842,0.52863 -0.25844,2.64314 0,3.17177 0.12181,0.24919 0.39502,-0.24919 0.51686,0 0.12182,0.24919 -0.077,0.74205 0,1.05726 0.21793,0.89156 0.81579,1.22294 1.03372,2.11451 0.1541,0.63042 -0.24365,1.61611 0,2.11452 0.12184,0.24919 0.39505,-0.2492 0.51686,0 0.24366,0.49838 -0.24364,1.61612 0,2.1145 0.12183,0.2492 0.39504,-0.24919 0.51688,0 0.24363,0.4984 -0.24366,1.61613 0,2.11451 0.12182,0.2492 0.39504,-0.24919 0.51685,0 0.24366,0.4984 -0.24364,1.61613 0,2.11451 0.12183,0.2492 0.39505,-0.24919 0.51687,0 0.12183,0.2492 -0.12182,0.80807 0,1.05726 0.12183,0.2492 0.39504,-0.24919 0.51686,0 0.12439,0.25442 -0.12437,3.97461 0,4.22903 0.12183,0.24919 0.39504,-0.2492 0.51687,0 0.14143,0.28929 -0.14019,3.65548 0,4.22902 0.63869,2.61291 0.51686,-0.36495 0.51686,2.11451 0,0.35243 0.1723,1.05726 0,1.05726 -0.17228,0 0,-1.40968 0,-1.05726 0,0.70484 0,1.40968 0,2.11452 0,2.47945 -0.12181,-0.4984 0.51687,2.11451 0.077,0.31521 0.17228,1.05726 0,1.05726 -0.1723,0 0,-1.40968 0,-1.05726 0,0.70482 -0.10897,1.44584 0,2.11451 0.077,0.47282 0.4079,0.61147 0.51686,1.05726 0.077,0.31521 -0.12182,0.80805 0,1.05726 0.12183,0.24919 0.39504,-0.24921 0.51687,0 0.12183,0.24919 -0.12183,0.80805 0,1.05725 0.12183,0.24919 0.39504,-0.2492 0.51686,0 0.12182,0.24919 -0.12182,0.80806 0,1.05726 0.12182,0.24919 0.39504,-0.2492 0.51687,0 0.12182,0.24919 -0.12183,0.80805 0,1.05725 0.12182,0.2492 0.39503,-0.2492 0.51685,0 0.25844,0.52863 -0.25842,2.64314 0,3.17177 1.06943,2.18751 -0.0418,-3.34279 1.03374,1.05725 0.077,0.31522 -0.077,0.74205 0,1.05726 0.10897,0.44578 0.4079,0.61148 0.51687,1.05725 0.077,0.31522 -0.077,0.74205 0,1.05726 0.10896,0.44578 0.40789,0.61148 0.51685,1.05726 0.077,0.3152 -0.077,0.74204 0,1.05725 0.10897,0.44579 0.40791,0.61148 0.51687,1.05726 0.077,0.31521 -0.077,0.74205 0,1.05725 0.10896,0.44579 0.40791,0.61148 0.51687,1.05726 0.14019,0.57354 -0.14143,3.93974 0,4.22903 0.12182,0.24919 0.39504,-0.2492 0.51686,0 0.24365,0.49839 -0.1541,1.48409 0,2.11451 0.10897,0.44578 0.4079,0.61147 0.51686,1.05726 0.1541,0.63042 -0.1541,1.48409 0,2.1145 0.10897,0.44579 0.40791,0.61148 0.51687,1.05726 0.077,0.315211 -0.12182,0.808061 0,1.057257 0.12182,0.249195 0.39503,-0.249196 0.51687,0 0.12182,0.249195 -0.12184,0.80806 0,1.057256 0.12182,0.249195 0.39504,-0.249196 0.51686,0 0.12182,0.249195 -0.12182,0.80806 0,1.057256 0.12182,0.249195 0.39504,-0.249196 0.51686,0 0.12182,0.249195 -0.12182,0.808061 0,1.057256 0.12182,0.249195 0.39504,-0.249195 0.51686,0 0.12183,0.249195 0.17229,1.057256 0,1.057256 -0.24364,0 -0.68916,-1.409682 -0.51686,-1.057256 0.34457,0.704831 0.76342,1.285137 1.03373,2.114512 0.19113,0.586459 -0.24365,1.616122 0,2.114512 0.12183,0.249196 0.39504,-0.249196 0.51686,0 0.12183,0.249196 -0.077,0.742046 0,1.057256 0.10897,0.445782 0.4079,0.611475 0.51687,1.057256 0.077,0.315211 -0.077,0.742046 0,1.057257 0.10896,0.445781 0.4079,0.611474 0.51686,1.057255 0.1541,0.630421 -0.24364,1.616122 0,2.114513 0.12183,0.249195 0.39504,-0.249195 0.51687,0 0.12183,0.249195 -0.077,0.742046 0,1.057255 0.10895,0.445782 0.4079,0.611475 0.51686,1.057257 0.077,0.31521 -0.12182,0.808061 0,1.057256 0.12182,0.249195 0.39504,-0.249195 0.51687,0 0.14142,0.289286 -0.14019,3.655484 0,4.229024 0.10896,0.445782 0.40789,0.611475 0.51685,1.057256 0.15411,0.630421 -0.24363,1.616121 0,2.114513 0.68917,1.409681 0.51687,-1.762087 0.51687,1.057255 0,1.057257 0,2.114512 0,3.171768 0,0.352426 0.1723,1.057257 0,1.057257 -0.17229,0 -0.12182,-1.306452 0,-1.057257 0.27241,0.557218 0.39505,1.366927 0.51687,2.114513 0.10897,0.668672 -0.24365,1.616121 0,2.114512 0.12182,0.249195 0.39504,-0.249195 0.51687,0 0.24364,0.49839 -0.24366,1.616121 0,2.114512 0.12182,0.249196 0.39503,-0.249194 0.51685,0 0.25844,0.528628 -0.25843,2.643141 0,3.171769 0.12184,0.249194 0.39505,-0.249196 0.51687,0 0.25843,0.528627 -0.25843,2.643139 0,3.171767 0.12182,0.249196 0.39503,-0.249194 0.51687,0 0.25843,0.528628 -0.25844,2.64314 0,3.171768 0.12182,0.249196 0.39504,-0.249195 0.51686,0 0.12182,0.249196 0,0.704831 0,1.057257 0,2.466937 0,4.933854 0,7.400792 0,4.229024 0,8.458049 0,12.687073 0,0.352426 0,0.704831 0,1.057257 0,0.352424 -0.12182,0.80806 0,1.057255 0.12182,0.249195 0.39504,-0.249195 0.51686,0 0.12183,0.249195 0.1723,1.057257 0,1.057257 -0.17228,0 0,-0.704831 0,-1.057257 0,-0.352425 0,-0.704831 0,-1.057255 0,-2.819343 0,-5.638708 0,-8.458049 0,-0.352427 0,-0.704831 0,-1.057257 0,-0.352425 -0.077,-0.742046 0,-1.057256 0.10897,-0.445781 0.4079,-0.611474 0.51687,-1.057256 0.15409,-0.630421 -0.24365,-1.616122 0,-2.114512 0.12182,-0.249196 0.39503,0.249195 0.51687,0 0.24364,-0.498391 -0.15411,-1.484092 0,-2.114512 0.10896,-0.445781 0.40789,-0.611475 0.51686,-1.057257 0.077,-0.31521 -0.077,-0.742045 0,-1.057255 0.10896,-0.445782 0.4079,-0.611475 0.51686,-1.057256 0.1541,-0.630421 -0.24365,-1.616122 0,-2.114512 0.68915,-1.409682 0.51687,1.762086 0.51687,-1.057257 0,-0.352425 0,-0.704829 0,-1.057255 0,-0.352426 -0.12183,-0.808061 0,-1.057256 1.06941,-2.187506 -0.0418,3.342789 1.03373,-1.057257 0.077,-0.315209 -0.12183,-0.80806 0,-1.057256 0.12182,-0.249194 0.39504,0.249196 0.51686,0 0.24366,-0.498391 -0.1541,-1.484092 0,-2.114511 0.10897,-0.445782 0.4079,-0.611475 0.51686,-1.057256 0.1541,-0.630421 -0.24365,-1.616123 0,-2.114513 0.12183,-0.249194 0.39504,0.249196 0.51686,0 0.25844,-0.528628 -0.25843,-2.64314 0,-3.171767 0.12184,-0.249197 0.39505,0.249194 0.51687,0 0.12182,-0.249197 0,-0.704831 0,-1.057257 0,-0.704831 0,-1.409682 0,-2.114513 0,-2.114511 0,-4.229023 0,-6.343536 0,-0.352426 0,-0.70483 0,-1.057256 0,-0.352426 -0.077,-0.742045 0,-1.057256 0.10897,-0.445781 0.4079,-0.611475 0.51687,-1.057256 0.15693,-0.641988 -0.15694,-5.70155 0,-6.343537 0.10896,-0.445781 0.40789,-0.611475 0.51685,-1.057256 0.0934,-0.382346 0,-4.550916 0,-5.28628 0,-0.352426 -0.12181,-0.808061 0,-1.057256 0.12183,-0.249195 0.39505,0.249195 0.51687,0 0.12184,-0.249195 0,-0.704831 0,-1.057256 0,-1.762086 0,-3.524195 0,-5.286281 0,-2.81934 -0.17229,0.352426 0.51687,-1.05726 0.14142,-0.28928 -0.1402,-3.65548 0,-4.22902 0.10896,-0.44578 0.4079,-0.61147 0.51687,-1.05725 0.14019,-0.57354 -0.14142,-3.93974 0,-4.22903 0.12182,-0.24919 0.39504,0.2492 0.51685,0 0.0234,-0.0481 0,-4.78778 0,-5.28628 0,-0.35242 -0.12181,-0.80806 0,-1.05726 0.12183,-0.24919 0.39505,0.2492 0.51687,0 0.14143,-0.28928 -0.14019,-3.65547 0,-4.22901 0.10896,-0.44579 0.40791,-0.61148 0.51687,-1.05726 0.1541,-0.63043 -0.34458,-2.11451 0,-2.11451 0.17229,0 0,1.40968 0,1.05725 0,-1.40968 0,-2.81934 0,-4.22902 0,-0.74939 -0.0668,-6.07018 0,-6.34354 0.10896,-0.44578 0.40789,-0.61147 0.51686,-1.05726 0.17851,-0.73029 -0.18143,-4.91516 0,-5.28628 0.12183,-0.24919 0.39504,0.24919 0.51686,0 0.12183,-0.24919 0,-0.70483 0,-1.05725 0,-2.11452 0,-4.22903 0,-6.34353 0,-0.35244 -0.12182,-0.80807 0,-1.05727 0.12183,-0.24919 0.39505,0.2492 0.51687,0 0.12438,-0.25441 -0.12438,-3.9746 0,-4.22901 0.12182,-0.2492 0.43981,0.3152 0.51686,0 0.15862,-0.64889 -0.1602,-4.6309 0,-5.28629 0.10897,-0.44578 0.4079,-0.61147 0.51687,-1.05726 0.1541,-0.63041 -0.24365,-1.61611 0,-2.11451 0.12182,-0.2492 0.39504,0.2492 0.51686,0 0.25844,-0.52863 -0.25844,-2.64314 0,-3.17177 0.12182,-0.2492 0.39504,0.24921 0.51687,0 0.12182,-0.2492 -0.077,-0.74204 0,-1.05725 0.10896,-0.44578 0.4079,-0.61147 0.51685,-1.05726 0.10245,-0.4192 -0.10565,-2.95562 0,-3.17176 0.12184,-0.24921 0.39505,0.24919 0.51688,0 0.14142,-0.2893 -0.14021,-3.65549 0,-4.22903 0.10896,-0.44578 0.4079,-0.61147 0.51686,-1.05725 0.14019,-0.57354 -0.14142,-3.93974 0,-4.22903 0.12182,-0.2492 0.39504,0.2492 0.51687,0 0.12181,-0.2492 -0.077,-0.74204 0,-1.05725 0.10896,-0.44579 0.40788,-0.61148 0.51685,-1.05727 0.10245,-0.41919 -0.10566,-2.95562 0,-3.17177 1.06943,-2.18749 -0.0417,3.34279 1.03374,-1.05724 0.11499,-0.47046 -0.0789,-3.74547 0,-4.22903 0.077,-0.47283 0.40789,-0.61148 0.51685,-1.05726 0.077,-0.3152 -0.077,-0.74204 0,-1.05726 0.21795,-0.89155 0.81581,-1.22294 1.03374,-2.1145 0.077,-0.31522 -0.077,-0.74205 0,-1.05726 0.10896,-0.44579 0.4079,-0.61148 0.51687,-1.05726 0.1541,-0.63042 -0.24366,-1.61613 0,-2.11451 0.12182,-0.24919 0.39504,0.24919 0.51685,0 0.0207,-0.0426 0,-3.84076 0,-4.22903 0,-0.35243 0,-0.70483 0,-1.05725 0,-0.35242 -0.077,-0.74205 0,-1.05726 0.10897,-0.44578 0.4079,-0.61147 0.51687,-1.05725 0.1541,-0.63042 -0.1541,-1.4841 0,-2.11451 0.10896,-0.44579 0.40791,-0.61148 0.51686,-1.05726 0.077,-0.31521 -0.12182,-0.80806 0,-1.05726 0.12183,-0.24919 0.39504,-0.24919 0.51687,0 0.12183,0.2492 -0.077,0.74205 0,1.05726 0.10897,0.44578 0.4079,0.61147 0.51686,1.05726 0.077,0.3152 -0.12181,0.80806 0,1.05725 0.12183,0.24919 0.39505,-0.24919 0.51687,0 0.25844,0.52863 -0.25843,2.64313 0,3.17177 0.12183,0.24919 0.39504,-0.24919 0.51686,0 0.0234,0.0479 0,4.78778 0,5.28628 0,2.81934 -0.17229,-0.35242 0.51687,1.05726 0.24364,0.49839 -0.24365,1.61612 0,2.11451 0.12183,0.24919 0.39504,-0.2492 0.51686,0 0.12182,0.24919 -0.12182,0.80805 0,1.05726 0.12182,0.24919 0.39504,-0.24921 0.51687,0 0.12181,0.24919 -0.12183,0.80805 0,1.05725 0.12181,0.24919 0.39503,-0.2492 0.51685,0 0.12439,0.25442 -0.12437,3.97461 0,4.22903 0.12184,0.24919 0.39505,-0.2492 0.51688,0 0.12182,0.24919 -0.077,0.74205 0,1.05725 0.10895,0.44578 0.4079,0.61148 0.51686,1.05725 0.077,0.31522 -0.077,0.74205 0,1.05727 0.10897,0.44577 0.4079,0.61147 0.51687,1.05724 0.10243,0.41921 -0.10568,2.95563 0,3.17177 0.12181,0.24919 0.39503,-0.24919 0.51685,0 0.12184,0.24919 -0.12182,0.80807 0,1.05727 0.12184,0.24919 0.39505,-0.2492 0.51688,0 0.12181,0.24919 -0.12183,0.80805 0,1.05725 0.12181,0.2492 0.39502,-0.2492 0.51686,0 0.12182,0.2492 -0.077,0.74204 0,1.05725 0.10897,0.44579 0.40789,0.61147 0.51686,1.05726 0.077,0.31521 -0.12182,0.80806 0,1.05725 0.12182,0.2492 0.39504,-0.24919 0.51686,0 0.24366,0.4984 -0.1541,1.4841 0,2.11452 0.10897,0.44578 0.40791,0.61148 0.51687,1.05725 0.10245,0.41921 -0.10567,2.95562 0,3.17178 0.12182,0.24919 0.39503,-0.24921 0.51687,0 0.24364,0.49839 -0.24366,1.61611 0,2.11451 0.12182,0.24919 0.39504,-0.2492 0.51685,0 0.12183,0.24919 -0.12181,0.80806 0,1.05725 0.12183,0.2492 0.39505,-0.24919 0.51687,0 0.12183,0.2492 -0.077,0.74205 0,1.05726 0.10897,0.44578 0.40791,0.61147 0.51686,1.05725 0.077,0.31521 -0.12182,0.80807 0,1.05726 0.12183,0.24919 0.39504,-0.24919 0.51687,0 0.12183,0.24919 -0.12183,0.80806 0,1.05726 0.12183,0.24919 0.39505,-0.2492 0.51686,0 0.12183,0.24919 -0.077,0.74204 0,1.05725 0.10897,0.44578 0.4079,0.61148 0.51687,1.05726 0.077,0.31521 -0.12182,0.80806 0,1.05725 0.12182,0.24921 0.39504,-0.24919 0.51686,0 0.24365,0.4984 -0.24364,1.61613 0,2.11452 0.12183,0.24919 0.39504,-0.2492 0.51687,0 0.12183,0.24919 -0.0545,0.72293 0,1.05726 0.12183,0.74758 0.42342,1.35 0.51686,2.1145 0.0835,0.6838 -0.10896,1.44585 0,2.11451 0.53777,3.30004 0.34457,-0.35242 1.03372,1.05726 1.06943,2.18751 -1.63419,-0.0854 0.51688,2.11451 0.15408,0.15754 0.39503,-0.24919 0.51686,0 0.12182,0.2492 -0.077,0.74205 0,1.05727 0.10897,0.44577 0.4079,0.61147 0.51687,1.05724 0.077,0.31521 -0.12183,0.80807 0,1.05726 0.12181,0.2492 0.39503,-0.24919 0.51685,0 0.12184,0.2492 -0.12182,0.80807 0,1.05726 0.12184,0.2492 0.39505,-0.24919 0.51687,0 0.12182,0.2492 -0.12182,0.80806 0,1.05725 0.12182,0.24919 0.39503,-0.24919 0.51687,0 0.24364,0.4984 -0.15409,1.4841 0,2.11452 0.10897,0.44578 0.40789,0.61148 0.51686,1.05725 0.10244,0.4192 -0.10567,2.95562 0,3.17177 0.12182,0.2492 0.39504,-0.2492 0.51686,0 0.12183,0.2492 -0.077,0.74205 0,1.05726 0.10897,0.44577 0.40791,0.61147 0.51687,1.05725 0.077,0.31522 -0.12182,0.80807 0,1.05726 0.12182,0.24919 0.39503,-0.24919 0.51687,0 0.24364,0.49839 -0.24365,1.61612 0,2.11451 0.12182,0.24919 0.39503,-0.2492 0.51686,0 0.12182,0.24919 -0.12183,0.80806 0,1.05726 0.24365,0.49839 0.79008,-0.49839 1.03373,0 0.12182,0.24919 -0.077,0.74205 0,1.05726 0.10896,0.44577 0.40789,0.61147 0.51686,1.05725 0.077,0.31521 -0.12183,0.80806 0,1.05726 0.12183,0.24919 0.39504,-0.2492 0.51686,0 0.12183,0.24919 -0.12182,0.80805 0,1.05726 0.12183,0.24919 0.36277,-0.15754 0.51687,0 0.21793,0.22288 0.29893,0.83435 0.51686,1.05725 0.1541,0.15753 0.39504,-0.2492 0.51686,0 0.12184,0.24919 -0.12182,0.80806 0,1.05726 0.12184,0.24919 0.39505,-0.2492 0.51687,0 0.12182,0.24919 -0.12182,0.80805 0,1.05725 1.06942,2.18751 -0.0418,-3.34279 1.03372,1.05726 0.077,0.31521 -0.12181,0.80806 0,1.05726 1.06942,2.1875 -0.0418,-3.3428 1.03374,1.05725 0.077,0.31521 -0.077,0.74204 0,1.05725 0.10897,0.44578 0.4079,0.61148 0.51687,1.05726 0.077,0.31521 -0.12183,0.80806 0,1.05725 0.12182,0.2492 0.39504,-0.24919 0.51685,0 0.24366,0.4984 -0.15409,1.4841 0,2.11452 0.10897,0.44578 0.4079,0.61148 0.51687,1.05725 0.077,0.31522 -0.077,0.74205 0,1.05726 0.21793,0.89157 0.8158,1.22295 1.03373,2.11451 0.077,0.31521 -0.077,0.74205 0,1.05726 0.10897,0.44578 0.4079,0.61147 0.51686,1.05726 0.077,0.31521 -0.12182,0.80806 0,1.05725 0.12183,0.2492 0.39505,-0.24919 0.51687,0 0.12182,0.2492 -0.12182,0.80806 0,1.05726 0.12182,0.24919 0.39503,-0.2492 0.51687,0 0.12182,0.24919 -0.12184,0.80806 0,1.05725 0.12182,0.2492 0.39503,-0.24919 0.51686,0 0.24364,0.49839 -0.24365,1.61613 0,2.11452 0.12182,0.24919 0.39504,-0.2492 0.51686,0 0.12182,0.24919 -0.12182,0.80806 0,1.05725 0.12182,0.2492 0.39504,-0.24919 0.51687,0 0.12182,0.2492 -0.077,0.74204 0,1.05725 0.57141,2.337661 0.32078,0.32809 1.03373,1.05726 0.21792,0.222891 0.34457,0.704831 0.51686,1.057257 0.17229,0.352425 0.4079,0.611474 0.51687,1.057256 0.077,0.31521 -0.077,0.742045 0,1.057256 1.07552,4.400045 -0.0356,-1.13025 1.03372,1.057256 0.12182,0.249195 -0.077,0.742046 0,1.057256 0.10897,0.445781 0.4079,0.611475 0.51687,1.057256 0.077,0.31521 -0.12183,0.808061 0,1.057256 0.12182,0.249195 0.39504,-0.249195 0.51685,0 0.12183,0.249195 -0.077,0.742046 0,1.057256 0.10898,0.445782 0.4079,0.611475 0.51687,1.057256 0.077,0.31521 -0.12182,0.808061 0,1.057256 0.12184,0.249195 0.36278,-0.157531 0.51687,0 2.15107,2.200024 -0.55255,-0.07295 0.51687,2.114512 0.12182,0.249195 0.34457,0 0.51685,0 0,0.352426 -0.077,0.742046 0,1.057256 1.07554,4.400047 -0.0356,-1.130249 1.03374,1.057257 0.12182,0.249195 -0.077,0.742046 0,1.057255 1.07553,4.400046 -0.0356,-1.130248 1.03372,1.057257 0.12183,0.249195 -0.12181,0.808061 0,1.057256 0.12183,0.249195 0.39505,-0.249195 0.51687,0 0.25843,0.528628 -0.25843,2.64314 0,3.171768 0.12183,0.249195 0.39503,-0.249195 0.51686,0 0.12183,0.249195 -0.12183,0.80806 0,1.057256 0.12183,0.249196 0.39504,-0.249196 0.51687,0 0.12182,0.249196 -0.12183,0.808061 0,1.057256 0.12182,0.249195 0.39504,-0.249195 0.51686,0 0.12182,0.249195 -0.12182,0.808061 0,1.057256 0.24366,0.498391 0.79009,-0.49839 1.03372,0 0.12184,0.249196 -0.12182,0.808061 0,1.057257 0.12184,0.249194 0.39505,-0.249196 0.51688,0 0.12182,0.249194 -0.12183,0.80806 0,1.057255 0.12182,0.249195 0.39504,-0.249195 0.51686,0 0.12182,0.249195 -0.12182,0.808061 0,1.057257 0.12182,0.249195 0.39504,-0.249196 0.51687,0 0.12181,0.249195 -0.12183,0.808061 0,1.057255 1.0694,2.187505 -0.0418,-3.342789 1.03373,1.057256 0.077,0.315211 -0.12183,0.808061 0,1.057257 0.24364,0.49839 0.79007,-0.498391 1.03372,0 0.12182,0.249195 -0.077,0.742045 0,1.057256 0.6387,2.612902 0.51686,-0.364943 0.51686,2.114512 0,0.352426 0.1723,1.057255 0,1.057255 -0.17229,0 0,-0.704829 0,-1.057255 0,-0.352426 0,-0.704831 0,-1.057255 0,-2.466939 0,-4.933856 0,-7.400793 0,-5.286281 0,-10.572561 0,-15.858842 0,-0.352426 0,-0.70483 0,-1.057256 0,-0.352426 -0.12182,-0.808061 0,-1.057256 0.12184,-0.249195 0.39505,0.249195 0.51687,0 0.18143,-0.371118 -0.1785,-4.555992 0,-5.28628 0.10896,-0.445782 0.4079,-0.611475 0.51687,-1.057256 0.20674,-0.845806 -0.20675,-2.325967 0,-3.171767 0.10897,-0.44578 0.40789,-0.61147 0.51685,-1.05725 0.077,-0.31522 0,-0.70483 0,-1.05726 0,-0.35243 0,-0.70483 0,-1.05726 0,-0.35242 0,-0.70483 0,-1.05725 0,-0.35243 -0.12181,-0.80806 0,-1.05726 0.12183,-0.24919 0.39505,0.2492 0.51687,0 0.12183,-0.24919 0,-0.70483 0,-1.05725 0,-0.4985 -0.0234,-5.23837 0,-5.28629 0.12183,-0.24919 0.39504,0.2492 0.51686,0 0.24365,-0.49839 -0.15409,-1.48408 0,-2.11451 0.10897,-0.44578 0.4079,-0.61147 0.51687,-1.05726 0.077,-0.31521 -0.12183,-0.80805 0,-1.05725 0.12183,-0.24919 0.39505,0.2492 0.51686,0 0.18143,-0.37111 -0.1785,-4.55599 0,-5.28628 0.10897,-0.44578 0.4079,-0.61148 0.51687,-1.05725 0.15409,-0.63043 -0.24366,-1.61613 0,-2.11451 0.12183,-0.24921 0.39504,0.24919 0.51686,0 0.12183,-0.24921 0,-0.70484 0,-1.05726 0,-0.41796 -0.11037,-4.83475 0,-5.28628 0.10897,-0.44579 0.4079,-0.61148 0.51687,-1.05726 0.077,-0.31521 -0.077,-0.74204 0,-1.05726 0.10895,-0.44578 0.4079,-0.61148 0.51686,-1.05725 0.077,-0.31521 -0.12182,-0.80806 0,-1.05726 0.12182,-0.2492 0.39504,0.2492 0.51687,0 0.24364,-0.49839 -0.24366,-1.61612 0,-2.11451 0.12182,-0.24919 0.39503,0.2492 0.51685,0 0.12184,-0.24919 -0.077,-0.74204 0,-1.05726 0.10898,-0.44577 0.40791,-0.61147 0.51688,-1.05725 0.077,-0.31521 -0.077,-0.74205 0,-1.05725 0.10895,-0.4458 0.4079,-0.61148 0.51686,-1.05727 0.077,-0.31521 -0.077,-0.74205 0,-1.05725 0.10897,-0.44579 0.4079,-0.61148 0.51687,-1.05726 0.15409,-0.63042 -0.24366,-1.61612 0,-2.1145 0.12181,-0.2492 0.39503,0.24919 0.51685,0 0.24366,-0.49841 -0.15409,-1.4841 0,-2.11452 0.10897,-0.44579 0.40791,-0.61148 0.51687,-1.05726 0.15409,-0.63042 -0.24365,-1.61612 0,-2.1145 0.12182,-0.2492 0.39503,0.24919 0.51687,0 0.0167,-0.034 0,-2.91537 0,-3.17177 0,-2.81935 -0.17229,0.35242 0.51686,-1.05726 0.18144,-0.37112 -0.1785,-4.55599 0,-5.28628 0.10897,-0.44579 0.4079,-0.61148 0.51686,-1.05726 0.077,-0.31522 -0.12182,-0.80805 0,-1.05726 0.12184,-0.2492 0.39505,0.24921 0.51687,0 0.12182,-0.2492 -0.077,-0.74204 0,-1.05725 0.10896,-0.44578 0.4079,-0.61147 0.51687,-1.05726 0.14019,-0.57354 -0.14143,-3.93974 0,-4.22902 0.12182,-0.24919 0.39504,0.24919 0.51686,0 0.12182,-0.24919 0,-0.70483 0,-1.05726 0,-0.35242 0,-0.70482 0,-1.05726 0,-0.74937 -0.0667,-6.07016 0,-6.34353 0.10896,-0.44578 0.40789,-0.61148 0.51686,-1.05725 0.077,-0.31522 0,-0.70483 0,-1.05727 0,-0.35242 0,-0.70482 0,-1.05724 0,-2.11453 0,-4.22904 0,-6.34354 0,-0.35244 0,-0.70484 0,-1.05726 0,-0.35243 -0.12182,-0.80806 0,-1.05726 0.12182,-0.24919 0.39504,0.2492 0.51686,0 0.12439,-0.25441 -0.12437,-3.97461 0,-4.22902 0.12183,-0.2492 0.39504,0.24919 0.51687,0 0.25843,-0.52862 -0.25843,-2.64314 0,-3.17177 0.12183,-0.24919 0.39504,0.24919 0.51686,0 0.24366,-0.49839 -0.15409,-1.4841 0,-2.11451 0.21794,-0.89157 0.8158,-1.22295 1.03373,-2.11452 0.20675,-0.8458 -0.20675,-2.32596 0,-3.17176 0.10897,-0.44578 0.4079,-0.61148 0.51687,-1.05726 0.077,-0.31521 -0.12183,-0.80806 0,-1.05725 0.12183,-0.2492 0.39504,0.24919 0.51686,0 0.24365,-0.4984 -0.15409,-1.48409 0,-2.11452 0.10897,-0.44578 0.4079,-0.61147 0.51687,-1.05725 0.15409,-0.63042 -0.24366,-1.61613 0,-2.11451 0.12182,-0.2492 0.39504,0.24919 0.51685,0 0.10568,-0.21615 -0.10243,-2.75258 0,-3.17177 0.10898,-0.44578 0.40791,-0.61147 0.51687,-1.05727 0.20675,-0.84579 -0.20673,-2.32595 0,-3.17175 0.10896,-0.44579 0.40791,-0.61149 0.51687,-1.05726 0.077,-0.31522 -0.077,-0.74205 0,-1.05727 0.10897,-0.44577 0.4079,-0.61147 0.51687,-1.05724 0.0788,-0.32177 0,-2.69563 0,-3.17177 0,-2.11452 0,-4.22903 0,-6.34354 0,-0.35243 0,-0.70483 0,-1.05726 0,-0.35242 -0.12183,-0.80805 0,-1.05725 0.12182,-0.24921 0.39503,0.2492 0.51685,0 0.0207,-0.0426 0,-3.84076 0,-4.22903 0,-0.2564 -0.0167,-3.13776 0,-3.17177 0.12184,-0.24919 0.39505,0.2492 0.51687,0 0.12182,-0.24919 0,-0.70482 0,-1.05725 0,-0.94489 -0.0824,-4.94936 0,-5.28628 0.10896,-0.44578 0.40791,-0.61148 0.51687,-1.05726 0.1785,-0.73028 -0.18144,-4.91517 0,-5.28629 0.12182,-0.24919 0.39504,0.24922 0.51686,0 0.24365,-0.49838 -0.1541,-1.48408 0,-2.1145 0.10897,-0.44578 0.4079,-0.61147 0.51686,-1.05725 0.10244,-0.41922 -0.10566,-2.95563 0,-3.17177 0.12183,-0.2492 0.39505,0.24919 0.51687,0 0.14143,-0.28929 -0.1402,-3.65548 0,-4.22903 0.10896,-0.44578 0.40791,-0.61147 0.51687,-1.05726 0.10243,-0.4192 -0.10567,-2.95562 0,-3.17177 0.12182,-0.24919 0.39503,0.2492 0.51686,0 0.24365,-0.49838 -0.24365,-1.61612 0,-2.11451 0.12182,-0.24919 0.39504,0.24919 0.51686,0 0.24366,-0.49838 -0.1541,-1.48408 0,-2.11451 0.10897,-0.44578 0.4079,-0.61147 0.51687,-1.05726 0.15409,-0.63041 -0.24365,-1.61611 0,-2.11451 0.12182,-0.24919 0.39503,0.24919 0.51686,0 0.12183,-0.24919 0,-0.70482 0,-1.05725 0,-2.46694 0,-4.93386 0,-7.4008 0,-0.47614 -0.0788,-2.85 0,-3.17176 0.10897,-0.44578 0.4079,-0.61148 0.51687,-1.05726 0.077,-0.31522 0,-0.70483 0,-1.05725 0,-0.35244 0,-0.70484 0,-1.05726 0,-0.89723 -0.095,-5.76069 0,-6.34354 0.077,-0.47283 0.40789,-0.61147 0.51686,-1.05725 0.1541,-0.63042 -0.24366,-1.61612 0,-2.11452 0.12182,-0.24919 0.39504,0.2492 0.51686,0 0.25843,-0.52862 -0.25842,-2.64313 0,-3.17177 0.12183,-0.24919 0.39504,0.24919 0.51686,0 0.0208,-0.0426 0,-3.84076 0,-4.22901 0,-0.35243 -0.17229,-1.05727 0,-1.05727 0.1723,0 0,1.40969 0,1.05727 0,-1.40969 0,-2.81935 0,-4.22904 0,-3.87659 0,-7.75322 0,-11.62981 0,-0.73536 -0.0934,-4.90393 0,-5.28628 0.10897,-0.44577 0.40791,-0.61147 0.51687,-1.05726 0.077,-0.3152 0,-0.70483 0,-1.05725 0,-0.35243 0,-0.70484 0,-1.05726 0,-2.11451 0,-4.22902 0,-6.34353 0,-0.35243 0,-0.70484 0,-1.05726 0,-0.35243 -0.077,-0.74205 0,-1.05725 0.10897,-0.44579 0.4079,-0.61148 0.51687,-1.05727 0.16304,-0.66697 -0.16305,-4.61929 0,-5.28627 0.10896,-0.44578 0.40789,-0.61147 0.51685,-1.05726 0.16244,-0.6645 -0.16242,-3.56451 0,-4.22902 0.10898,-0.44579 0.40791,-0.61147 0.51687,-1.05726 0.20675,-0.8458 -0.20673,-2.32596 0,-3.17177 0.10896,-0.44577 0.40791,-0.61147 0.51687,-1.05725 0.077,-0.31522 0,-0.70484 0,-1.05726 0,-1.76208 0,-3.52419 0,-5.28628 0,-0.35242 0,-0.70483 0,-1.05726 0,-0.35242 -0.077,-0.74205 0,-1.05724 0.10897,-0.4458 0.4079,-0.61149 0.51687,-1.05727 0.0668,-0.27336 0,-5.59415 0,-6.34353 0,-0.35243 -0.077,-0.74205 0,-1.05727 0.10896,-0.44577 0.40789,-0.61146 0.51685,-1.05725 0.15411,-0.63042 -0.15409,-1.48409 0,-2.11451 0.10897,-0.44578 0.4079,-0.61148 0.51687,-1.05725 0.16304,-0.66699 -0.16304,-4.61931 0,-5.28628 0.10896,-0.44579 0.40791,-0.61148 0.51687,-1.05726 0.1785,-0.73029 -0.18144,-4.91516 0,-5.28628 0.12182,-0.24919 0.39503,0.24919 0.51686,0 0.25842,-0.52863 -0.25843,-2.64315 0,-3.17177 0.12183,-0.2492 0.39504,0.2492 0.51686,0 0.12438,-0.25442 -0.12438,-3.97461 0,-4.22903 0.68915,-1.40969 0.51687,1.76209 0.51687,-1.05725 0,-0.47615 -0.0787,-2.85 0,-3.17176 0.10896,-0.44579 0.40791,-0.61148 0.51687,-1.05727 0.15409,-0.63042 -0.1541,-1.48408 0,-2.11451 0.10896,-0.44578 0.40789,-0.61147 0.51686,-1.05726 0.10244,-0.4192 -0.10568,-2.95562 0,-3.17176 0.12182,-0.2492 0.39504,0.2492 0.51686,0 0.24366,-0.4984 -0.24365,-1.61612 0,-2.11451 0.12182,-0.2492 0.39504,0.24919 0.51687,0 0.12437,-0.25442 -0.12438,-3.97462 0,-4.22902 0.12182,-0.24921 0.39503,0.24919 0.51685,0 0.12184,-0.24921 -0.12182,-0.80807 0,-1.05726 0.12184,-0.2492 0.39505,0.24919 0.51688,0 0.24364,-0.4984 -0.24366,-1.61612 0,-2.11452 0.12182,-0.2492 0.39504,0.24921 0.51686,0 0.12182,-0.2492 -0.12182,-0.80806 0,-1.05725 0.12182,-0.24919 0.39504,0.24919 0.51687,0 0.12182,-0.24919 -0.077,-0.74205 0,-1.05726 0.10896,-0.44578 0.40789,-0.61147 0.51685,-1.05725 0.077,-0.31521 -0.12182,-0.80807 0,-1.05726 0.12184,-0.24919 0.39505,0.24919 0.51688,0 0.12181,-0.24919 0.17229,-1.05726 0,-1.05726 -0.13116,0 -1.66642,4.05576 0,-1.05725 0.13514,-0.41469 0.40789,-0.61148 0.51686,-1.05726 0.32508,-1.32993 -0.74232,-2.11451 0.51685,-2.11451"
       id="path3080"
       inkscape:connector-curvature="0" />
    <path
       style="fill:none;stroke:#ff143f;stroke-width:32.98981857;stroke-linecap:round;stroke-linejoin:round;stroke-miterlimit:4;stroke-opacity:1;stroke-dasharray:none"
       d="m 350.22253,41.91275 c 0.4047,-5.089788 2.40952,-0.860464 3.40498,-2.071958 2.07363,-2.523605 -0.60848,-1.51657 1.135,-3.107938 0.16921,-0.15436 0.43375,0.244179 0.56749,0 0.13377,-0.244182 0,-0.690647 0,-1.035982 0.18918,-0.345332 0.3449,-0.765089 0.5675,-1.035978 0.51841,-0.630911 1.37721,-0.88429 1.70251,-2.07196 0.0846,-0.308866 -0.13376,-0.791796 0,-1.035979 0.13375,-0.244179 0.43374,0.244183 0.56749,0 0.13377,-0.244179 -0.0846,-0.727111 0,-1.035978 0.11962,-0.436811 0.44785,-0.599169 0.5675,-1.035981 0.0845,-0.308866 -0.0846,-0.727111 0,-1.035978 0.11963,-0.43681 0.37832,-0.690646 0.56749,-1.03598 0.18918,-0.345332 0.32821,-0.817574 0.56751,-1.035978 0.16919,-0.154361 0.43373,0.24418 0.5675,0 0.26751,-0.488361 -0.26752,-1.583599 0,-2.071959 0.13375,-0.24418 0.39829,0.15436 0.56749,0 2.36181,-2.155748 -0.60669,0.07148 0.5675,-2.07196 0.13376,-0.244178 0.43374,0.244181 0.56749,0 0.26753,-0.48836 -0.26751,-1.583596 0,-2.071957 0.26753,-0.488361 0.8675,0.488361 1.13501,0 0.13375,-0.244182 -0.0846,-0.727113 0,-1.035981 0.11965,-0.436809 0.44785,-0.599168 0.56749,-1.035978 0.0846,-0.308867 -0.13376,-0.7918 0,-1.03598 0.13375,-0.24418 0.43373,0.24418 0.5675,0 0.13375,-0.24418 -0.13377,-0.791798 0,-1.035979 0.13375,-0.244181 0.43374,0.244181 0.5675,0 0.13375,-0.244181 -0.0846,-0.727113 0,-1.03598 0.11964,-0.436811 0.44785,-0.599169 0.56749,-1.035979 0.0846,-0.308868 -0.13374,-0.791799 0,-1.035979 0.13377,-0.244181 0.43375,0.24418 0.56751,0 0.13374,-0.244181 -0.0846,-0.727113 0,-1.03598 0.11963,-0.43681 0.44786,-0.599169 0.5675,-1.035979 0.0846,-0.308866 -0.13376,-0.791799 0,-1.0359796 0.13376,-0.2441807 0.43373,0.2441806 0.5675,0 0.26751,-0.4883608 -0.1692,-1.4542247 0,-2.0719583 0.11963,-0.43681 0.44784,-0.5991691 0.5675,-1.0359792 0.16918,-0.6177346 -0.16922,-1.4542249 0,-2.0719591 0.11964,-0.4368104 0.44785,-0.599169 0.56749,-1.0359793 0.0846,-0.3088669 -0.13375,-0.7917991 0,-1.0359795 0.13376,-0.2441802 0.43374,0.2441804 0.5675,0 0.26752,-0.4883606 -0.1692,-1.4542249 0,-2.07195872 0.11964,-0.43680989 0.44786,-0.59916925 0.56748,-1.03597912 0.0846,-0.30886689 -0.0846,-0.72711286 0,-1.03597976 0.11966,-0.4368099 0.44788,-0.5991691 0.56752,-1.035979 0.15391,-0.5619979 -0.15529,-3.8604526 0,-4.1439178 0.13376,-0.2441799 0.43373,0.2441809 0.56749,0 0.26753,-0.4883606 -0.26752,-1.5835979 0,-2.0719587 0.13375,-0.24418 0.43374,0.2441807 0.5675,0 0.26752,-0.48836 -0.16921,-1.4542259 0,-2.0719589 0.11964,-0.43681 0.44787,-0.599169 0.56749,-1.035979 0.0846,-0.308867 -0.0846,-0.727112 0,-1.03598 0.11964,-0.43681 0.44786,-0.599169 0.5675,-1.035979 0.1692,-0.617734 -0.26752,-1.583598 0,-2.071959 0.13377,-0.244179 0.43374,0.244181 0.56749,0 0.13377,-0.244179 0,-0.690644 0,-1.035979 0,-1.726625 0,-3.453271 0,-5.179896 0,-0.345335 -0.13375,-0.791799 0,-1.03598 0.13377,-0.24418 0.43375,0.244181 0.56752,0 0.13375,-0.24418 0,-0.690646 0,-1.035979 0,-0.345333 0,-0.690647 0,-1.035979 0,-0.251246 -0.0183,-3.074621 0,-3.107938 0.13375,-0.244182 0.43373,0.24418 0.56748,0 0.13376,-0.244182 -0.13375,-0.791799 0,-1.035981 0.13376,-0.24418 0.43374,0.244182 0.56751,0 0.28376,-0.51799 -0.28375,-2.589948 0,-3.107937 0.13376,-0.244181 0.43375,0.24418 0.56748,0 0.26754,-0.48836 -0.2675,-1.583598 0,-2.071959 0.13377,-0.244181 0.43377,0.24418 0.56752,0 0.26751,-0.48836 -0.26752,-1.583598 0,-2.071959 0.13377,-0.244181 0.3983,0.154361 0.5675,0 2.36177,-2.155749 -0.60668,0.07148 0.56749,-2.071959 0.13376,-0.24418 0.43373,0.244181 0.5675,0 0.13376,-0.24418 -0.0845,-0.727112 0,-1.035979 0.23928,-0.87362 0.89571,-1.198336 1.13499,-2.071959 0.0845,-0.308866 -0.0846,-0.727113 0,-1.035978 0.11964,-0.436811 0.44786,-0.599169 0.56751,-1.03598 0.0846,-0.308867 -0.13377,-0.7918 0,-1.035979 0.13375,-0.244181 0.43373,0.244179 0.56749,0 0.15529,-0.283464 -0.15392,-3.581919 0,-4.143918 0.11965,-0.436811 0.44787,-0.599169 0.56751,-1.035979 0.15391,-0.561998 -0.1553,-3.860453 0,-4.143917 0.13374,-0.244181 0.43372,0.244179 0.5675,0 0.28375,-0.517991 -0.28376,-2.589949 0,-3.10794 0.13375,-0.24418 0.43373,0.244182 0.56749,0 0.26751,-0.488359 -0.16919,-1.454223 0,-2.071958 0.11963,-0.43681 0.44785,-0.599168 0.5675,-1.035979 0.1692,-0.617733 -0.16919,-1.454225 0,-2.071959 0.34049,-1.243175 1.362,-1.864763 1.70249,-3.107938 0.0846,-0.308866 -0.0845,-0.727113 0,-1.035979 0.11965,-0.43681 0.44786,-0.599168 0.5675,-1.03598 0.16919,-0.617734 -0.1692,-1.454224 0,-2.071958 0.23928,-0.873621 0.89573,-1.198338 1.135,-2.071962 0.16919,-0.617727 -0.1692,-1.454226 0,-2.071952 0.11963,-0.43681 0.44785,-0.599172 0.56749,-1.035981 0.0846,-0.308868 -0.0846,-0.727113 0,-1.035981 0.11964,-0.436809 0.44786,-0.59917 0.56752,-1.03598 0.17229,-0.629069 -0.17233,-5.586807 0,-6.215875 0.11962,-0.436811 0.44784,-0.599171 0.56748,-1.035981 0.16919,-0.617736 -0.16919,-1.454227 0,-2.071961 0.11965,-0.436811 0.44786,-0.599163 0.56751,-1.035973 0.17834,-0.651132 -0.17835,-3.492791 0,-4.143923 0.11962,-0.436811 0.44785,-0.599172 0.56748,-1.03598 0.1125,-0.410765 -0.116,-2.896137 0,-3.107934 0.13377,-0.244181 0.43376,0.244179 0.56751,0 0.28375,-0.517995 -0.28376,-2.589948 0,-3.107934 0.13377,-0.244181 0.43374,0.244173 0.56749,0 0.28375,-0.517987 -0.28374,-2.589952 0,-3.107932 0.13376,-0.24419 0.43375,0.24417 0.56751,0 0.17571,-0.32079 -0.17572,-4.85913 0,-5.17991 0.13376,-0.24417 0.43372,0.24418 0.56749,0 0.28375,-0.51799 -0.28374,-2.58995 0,-3.10794 0.13375,-0.24416 0.43374,0.24418 0.56751,0 0.0257,-0.0471 0,-4.69142 0,-5.17989 0,-0.34534 -0.13377,-0.7918 0,-1.03599 0.13374,-0.24418 0.43373,0.24419 0.56748,0 0.26752,-0.48836 -0.16917,-1.45422 0,-2.07194 0.11964,-0.43682 0.44786,-0.59919 0.56751,-1.036 0.17834,-0.65113 -0.17834,-3.49277 0,-4.14392 0.11963,-0.4368 0.44785,-0.59916 0.56748,-1.03596 0.15395,-0.562 -0.15526,-3.86047 0,-4.14392 0.13377,-0.24419 0.43375,0.24416 0.56752,0 0.15527,-0.28348 -0.15394,-3.58191 0,-4.14392 0.11964,-0.43682 0.44785,-0.59917 0.56749,-1.03598 0.227,-0.82879 -0.22698,-2.27916 0,-3.10794 0.11965,-0.43681 0.44786,-0.59918 0.56751,-1.03598 0.16917,-0.61772 -0.11965,-1.41674 0,-2.07196 0.13375,-0.73253 0.43373,-1.33942 0.56749,-2.07195 0.11964,-0.65521 -0.16919,-1.45423 0,-2.07195 0.11964,-0.43682 0.44785,-0.5992 0.5675,-1.036 0.0846,-0.30887 -0.0846,-0.72711 0,-1.03598 0.11964,-0.4368 0.44784,-0.59916 0.5675,-1.03597 0.16919,-0.61774 -0.26751,-1.5836 0,-2.07196 0.13376,-0.24418 0.43374,0.24418 0.56751,0 0.13654,-0.24929 -0.13658,-3.89462 0,-4.14391 0.13374,-0.24418 0.43372,0.24417 0.56748,0 0.11601,-0.21181 -0.11247,-2.69719 0,-3.10795 0.11965,-0.4368 0.44788,-0.59916 0.5675,-1.03598 0.1723,-0.62907 -0.17231,-5.5868 0,-6.21587 0.11964,-0.43681 0.44786,-0.59918 0.56749,-1.03599 0.15394,-0.56199 -0.15527,-3.86044 0,-4.14392 0.13377,-0.24417 0.43375,0.24419 0.5675,0 0.13377,-0.24417 0,-0.69063 0,-1.03596 0,-0.72057 -0.10254,-4.80525 0,-5.17991 0.11964,-0.4368 0.44787,-0.59916 0.56751,-1.03598 0.22701,-0.82879 -0.22699,-2.27916 0,-3.10793 0.11963,-0.43683 0.44787,-0.59916 0.56749,-1.03598 0.16919,-0.61774 -0.1692,-1.45424 0,-2.07196 0.11965,-0.43681 0.44787,-0.59917 0.5675,-1.03599 0.196,-0.71559 -0.1992,-4.81624 0,-5.17989 0.13375,-0.24419 0.43375,0.24418 0.56749,0 0.13377,-0.24419 0,-0.69064 0,-1.03597 0,-0.34534 0,-0.69065 0,-1.03599 0,-3.10794 0,-6.21587 0,-9.32381 0,-2.07196 0,-4.14391 0,-6.21588 0,-0.68074 -0.10664,-2.52344 0,-3.10794 0.13377,-0.73254 0.46491,-1.32284 0.5675,-2.07195 0.12667,-0.9249 0,-3.98073 0,-5.1799 0,-3.45327 0,-6.90652 0,-10.3598 0,-0.38045 -0.0228,-4.10222 0,-4.1439 0.13377,-0.24419 0.43375,0.24417 0.5675,0 0.0228,-0.0417 0,-3.76347 0,-4.14393 0,-0.34533 0,-0.69064 0,-1.03598 0,-0.34534 -0.13375,-0.79181 0,-1.03598 0.13376,-0.24418 0.4829,0.30886 0.5675,0 0.16978,-0.61991 -0.17685,-5.5702 0,-6.21588 0.11965,-0.43681 0.44787,-0.59917 0.56751,-1.03596 0.22699,-0.8288 -0.227,-2.27916 0,-3.10795 0.11964,-0.4368 0.44785,-0.59918 0.5675,-1.03598 0.0846,-0.30887 -0.18919,-1.03598 0,-1.03598 0.18916,0 0,0.69065 0,1.03598 0,0.34533 0,0.69064 0,1.03598 0,2.41729 0,4.83456 0,7.25186 0,2.07195 0,4.14391 0,6.21586 0,0.46656 -0.0864,2.79265 0,3.10796 0.11963,0.4368 0.44785,0.59916 0.56749,1.03598 0.15392,0.56199 -0.15528,3.86045 0,4.14391 0.13377,0.24418 0.43374,-0.24417 0.5675,0 0.13655,0.24929 -0.13656,3.89462 0,4.14391 0.13375,0.24419 0.43374,-0.24417 0.56749,0 0.26754,0.48836 -0.26751,1.58359 0,2.07196 0.13377,0.24418 0.43374,-0.24418 0.56751,0 0.26752,0.48837 -0.1692,1.45423 0,2.07195 0.11963,0.43682 0.44786,0.59917 0.5675,1.03599 0.1723,0.62907 -0.1723,5.58682 0,6.21587 0.11964,0.43682 0.44786,0.59918 0.56749,1.03598 0.16919,0.61774 -0.1692,1.45423 0,2.07196 0.11963,0.43682 0.44786,0.59918 0.5675,1.03598 0.19599,0.7156 -0.1992,4.81626 0,5.17989 0.13377,0.24419 0.43374,-0.24418 0.56749,0 0.26752,0.48836 -0.26752,1.58361 0,2.07198 0.13377,0.24417 0.43374,-0.24419 0.5675,0 0.28376,0.51798 -0.28374,2.58993 0,3.10793 0.13378,0.24417 0.43374,-0.24418 0.56751,0 0.15528,0.28346 -0.15394,3.58191 0,4.14391 0.11964,0.43681 0.44785,0.59917 0.56749,1.03598 0.17835,0.65114 -0.17834,3.49279 0,4.14392 0.11966,0.43681 0.44786,0.59917 0.5675,1.03597 0.11247,0.41077 -0.11602,2.89615 0,3.10795 0.13375,0.24417 0.43374,-0.24418 0.56749,0 0.13378,0.24417 -0.13375,0.79181 0,1.03598 0.13378,0.24417 0.43374,-0.24417 0.56749,0 0.13378,0.24417 -0.0846,0.72711 0,1.03598 0.11965,0.43682 0.44786,0.59915 0.56753,1.03598 0.0846,0.30886 -0.13377,0.79179 0,1.03599 0.13375,0.24417 0.43373,-0.2442 0.56749,0 0.28374,0.51798 -0.28376,2.58993 0,3.10792 0.13375,0.24418 0.43373,-0.24418 0.56751,0 0.13655,0.2493 -0.13658,3.89462 0,4.14392 0.13375,0.24419 0.43373,-0.24419 0.56748,0 0.17572,0.32078 -0.17573,4.85912 0,5.1799 0.13377,0.24417 0.43373,-0.24419 0.5675,0 0.28375,0.518 -0.28375,2.58995 0,3.10793 0.13377,0.24419 0.43374,-0.24418 0.5675,0 0.13376,0.24419 -0.0845,0.72711 0,1.03598 0.11963,0.43682 0.44785,0.59918 0.5675,1.03597 0.0846,0.30888 -0.0846,0.72713 0,1.03599 0.11964,0.43682 0.44787,0.59917 0.5675,1.03599 0.0845,0.30886 -0.13376,0.79179 0,1.03597 0.13375,0.24417 0.43373,-0.24418 0.56749,0 0.13376,0.24417 -0.13376,0.7918 0,1.03598 0.26752,0.48837 0.86747,-0.48836 1.135,0 0.26751,0.48837 -0.16919,1.45424 0,2.07196 0.11963,0.43681 0.44786,0.59916 0.56749,1.03599 0.0846,0.30885 -0.0846,0.72711 0,1.03597 1.1809,4.31151 -0.0391,-1.1075 1.13501,1.03598 0.26752,0.48835 -0.16919,1.45423 0,2.07196 0.11964,0.43681 0.44785,0.59917 0.56749,1.03597 0.16919,0.61774 -0.26753,1.5836 0,2.07196 0.13375,0.2442 0.43374,-0.24418 0.5675,0 0.28376,0.51799 -0.28376,2.58995 0,3.10794 0.13376,0.24418 0.43375,-0.24419 0.56749,0 0.26751,0.48839 -0.26751,1.5836 0,2.07197 0.13376,0.24417 0.43375,-0.2442 0.56751,0 0.26751,0.48836 -0.1692,1.45421 0,2.07195 0.11963,0.43681 0.44784,0.59916 0.56751,1.03598 0.0846,0.30887 -0.0845,0.72711 0,1.03598 0.11963,0.43681 0.44785,0.59916 0.56749,1.03597 0.16918,0.61774 -0.16921,1.45422 0,2.07197 0.11964,0.43681 0.44784,0.59916 0.5675,1.03598 0.0846,0.30887 -0.13377,0.7918 0,1.03597 0.13374,0.24418 0.39829,-0.15435 0.56749,0 0.23927,0.21841 0.32821,0.81756 0.5675,1.03598 0.1692,0.15436 0.43374,-0.24417 0.5675,0 0.13376,0.24419 -0.13376,0.79181 0,1.03599 0.13376,0.24418 0.3983,-0.15437 0.56749,0 0.2393,0.2184 0.37833,0.69064 0.56751,1.03598 0.18915,0.34532 0.44785,0.59916 0.56748,1.03598 0.0846,0.30886 -0.0846,0.72711 0,1.03598 1.1809,4.3115 -0.0391,-1.1075 1.135,1.03598 0.26752,0.48835 -0.26751,1.58358 0,2.07194 0.13376,0.24421 0.43375,-0.24417 0.5675,0 0.13377,0.24421 -0.0845,0.72713 0,1.03599 0.11966,0.43682 0.44787,0.59916 0.5675,1.03598 0.0846,0.30887 -0.0846,0.72711 0,1.03598 0.70126,2.56032 0.5675,-0.35761 0.5675,2.07197 0,2.42955 -0.13376,-0.48838 0.56749,2.07194 0.0846,0.30888 0.18918,1.03599 0,1.03599 -0.18915,0 0,-0.69065 0,-1.03599 0,-0.34533 0,-0.69063 0,-1.03597 0,-0.73431 -0.0733,-5.94801 0,-6.21589 0.70127,-2.56031 0.56751,0.35761 0.56751,-2.07194 0,-0.7343 -0.0733,-5.94802 0,-6.21589 0.11964,-0.43681 0.44786,-0.59916 0.56749,-1.03597 0.1692,-0.61773 -0.16918,-1.45423 0,-2.07197 0.11965,-0.43679 0.44788,-0.59916 0.56752,-1.03598 0.0846,-0.30886 -0.0846,-0.72711 0,-1.03597 0.11963,-0.43681 0.44785,-0.59918 0.56749,-1.03598 0.16919,-0.61772 -0.16919,-1.45423 0,-2.07196 0.11964,-0.43681 0.44786,-0.59917 0.5675,-1.03597 0.0846,-0.30888 -0.13376,-0.7918 0,-1.03598 0.13375,-0.24419 0.43372,0.24418 0.56749,0 0.13376,-0.24419 -0.0846,-0.72711 0,-1.03599 0.11964,-0.4368 0.44787,-0.59917 0.5675,-1.03596 0.11248,-0.41077 -0.11602,-2.89615 0,-3.10795 0.13376,-0.24418 0.43373,0.24419 0.56749,0 0.26753,-0.48837 -0.26751,-1.5836 0,-2.07196 0.13377,-0.24418 0.43375,0.24418 0.56752,0 0.26752,-0.48837 -0.26754,-1.58361 0,-2.07196 0.13374,-0.24419 0.43372,0.24418 0.56748,0 0.26753,-0.48836 -0.26751,-1.58361 0,-2.07195 0.13376,-0.24418 0.43374,0.24417 0.56751,0 0.116,-0.21181 -0.1125,-2.69719 0,-3.10795 0.11963,-0.4368 0.44786,-0.59916 0.56748,-1.03598 0.11249,-0.41076 -0.11601,-2.89614 0,-3.10795 0.13377,-0.24416 0.43375,0.2442 0.56751,0 0.28375,-0.51798 -0.28374,-2.58993 0,-3.10792 0.13376,-0.2442 0.43373,0.24419 0.56749,0 0.13376,-0.2442 -0.13376,-0.79181 0,-1.03599 0.13376,-0.24417 0.39831,0.15436 0.56751,0 0.47857,-0.4368 0.65643,-1.63515 1.13498,-2.07195 0.16919,-0.15437 0.39832,0.15436 0.56751,0 0.47856,-0.43682 0.65644,-1.63515 1.13499,-2.07197 0.1692,-0.15435 0.43375,0.24419 0.56751,0 0.13376,-0.24417 -0.0846,-0.7271 0,-1.03596 0.11964,-0.43682 0.44785,-0.59918 0.56751,-1.03599 0.0846,-0.30888 -0.13378,-0.79179 0,-1.03598 0.13375,-0.24419 0.43373,0.24419 0.56749,0 0.28373,-0.51799 -0.28376,-2.58994 0,-3.10794 0.13377,-0.24418 0.43373,0.24418 0.5675,0 0.28375,-0.51799 -0.28377,-2.58994 0,-3.10792 0.13376,-0.2442 0.43374,0.24417 0.56749,0 0.26752,-0.48839 -0.16919,-1.45424 0,-2.07197 0.11964,-0.43681 0.44786,-0.59917 0.5675,-1.03598 0.0846,-0.30887 -0.13377,-0.79181 0,-1.03598 0.13377,-0.24418 0.43374,0.24417 0.56751,0 0.13375,-0.24418 -0.13377,-0.79179 0,-1.03599 0.13375,-0.24417 0.43372,0.2442 0.56749,0 0.13376,-0.24417 -0.0846,-0.7271 0,-1.03597 0.0753,-0.27508 1.55181,-2.9704 1.70249,-3.10794 0.1692,-0.15437 0.43374,0.24419 0.56751,0 0.13374,-0.24418 -0.13377,-0.7918 0,-1.03598 0.13374,-0.24419 0.43373,0.24418 0.56749,0 0.26752,-0.48835 -0.26751,-1.58359 0,-2.07196 0.13376,-0.24418 0.43374,0.24419 0.5675,0 0.26751,-0.48835 -0.26752,-1.58359 0,-2.07195 0.13374,-0.2442 0.43375,0.24419 0.5675,0 0.15527,-0.28347 -0.15394,-3.58192 0,-4.14392 0.11964,-0.4368 0.44785,-0.59917 0.5675,-1.03599 0.17833,-0.65112 -0.17834,-3.49277 0,-4.14391 0.11962,-0.43682 0.44784,-0.59917 0.5675,-1.03597 0.17231,-0.62908 -0.17231,-5.58681 0,-6.21589 0.11963,-0.4368 0.44784,-0.59916 0.5675,-1.03598 0.16918,-0.61772 -0.26754,-1.58358 0,-2.07196 0.13375,-0.24418 0.43372,0.24419 0.56749,0 0.26753,-0.48835 -0.26751,-1.58359 0,-2.07196 0.13375,-0.24418 0.43374,0.24419 0.5675,0 0.15528,-0.28346 -0.15394,-3.58191 0,-4.14391 0.11963,-0.43681 0.44785,-0.59918 0.56749,-1.03598 0.0846,-0.30887 -0.13377,-0.79181 0,-1.03598 0.13377,-0.24418 0.43375,0.24417 0.5675,0 0.13376,-0.24418 -0.0845,-0.72711 0,-1.03598 0.11963,-0.4368 0.44785,-0.59917 0.56749,-1.03598 0.0846,-0.30886 -0.13375,-0.79179 0,-1.03597 0.13377,-0.24419 0.43375,0.24418 0.56751,0 0.13375,-0.24419 -0.0846,-0.72712 0,-1.03598 0.11963,-0.43682 0.44785,-0.59917 0.56749,-1.03598 0.0846,-0.30888 -0.0846,-0.72711 0,-1.03599 0.11964,-0.43681 0.44787,-0.59916 0.5675,-1.03596 0.11248,-0.41077 -0.11602,-2.89615 0,-3.10794 0.13376,-0.24419 0.43373,0.24417 0.5675,0 0.15528,-0.28348 -0.15392,-3.58194 0,-4.14393 0.23928,-0.87361 0.89572,-1.19833 1.13499,-2.07196 0.1692,-0.61774 -0.37831,-2.07196 0,-2.07196 0.80394,0 -1.60791,4.83457 0,-1.03597 0.0846,-0.30888 0.43376,0.24417 0.56751,0 0.13375,-0.24418 0,-0.69064 0,-1.03598 0,-0.34535 0,-0.69065 0,-1.03599 0,-0.38045 -0.0229,-4.10222 0,-4.14392 0.13375,-0.24418 0.43374,0.24419 0.5675,0 0.0183,-0.0333 0,-2.85669 0,-3.10793 0,-0.69065 0,-1.38133 0,-2.07196 0,-0.34533 -0.18918,-1.03599 0,-1.03599 0.18916,0 0,0.69066 0,1.03599 0,0.69063 0,1.38131 0,2.07196 0,2.42956 -0.13376,-0.48838 0.5675,2.07196 0.0845,0.30887 0,0.69064 0,1.03597 0,0.34535 0,0.69064 0,1.03599 0,0.48846 -0.0257,5.13294 0,5.1799 0.13375,0.24417 0.43374,-0.24418 0.56749,0 0.26751,0.48835 -0.26752,1.58359 0,2.07195 0.13377,0.24419 0.43374,-0.24419 0.5675,0 0.26752,0.48837 -0.16919,1.45423 0,2.07196 0.11964,0.43681 0.44784,0.59917 0.5675,1.03598 0.196,0.71559 -0.1992,4.81624 0,5.17991 0.13375,0.24417 0.43374,-0.2442 0.5675,0 0.13376,0.24417 0,0.69063 0,1.03597 0,2.07195 0,4.14392 0,6.21587 0,2.76261 -0.18918,-0.34533 0.5675,1.03598 0.28374,0.51799 -0.28375,2.58996 0,3.10794 0.13374,0.24419 0.43373,-0.24418 0.56749,0 0.19921,0.36366 -0.19599,4.4643 0,5.1799 0.11965,0.43681 0.44787,0.59916 0.5675,1.03597 0.11248,0.41077 -0.11601,2.89615 0,3.10794 0.13376,0.24418 0.43374,-0.24418 0.5675,0 0.13376,0.24418 0,0.69066 0,1.03598 0,1.72664 0,3.45327 0,5.17991 0,0.34531 -0.13376,0.79179 0,1.03597 0.13376,0.24418 0.43374,-0.24418 0.56749,0 0.28376,0.51798 -0.28373,2.58995 0,3.10795 0.13376,0.24417 0.43374,-0.24419 0.56751,0 0.26752,0.48834 -0.26751,1.58358 0,2.07195 0.13375,0.24418 0.43373,-0.24419 0.56749,0 0.13375,0.24418 -0.13376,0.7918 0,1.03598 0.13375,0.24417 0.43373,-0.24418 0.5675,0 0.13377,0.24417 -0.0846,0.72709 0,1.03598 0.11965,0.43681 0.44786,0.59917 0.5675,1.03597 0.1692,0.61775 -0.26752,1.58362 0,2.07196 0.13375,0.24419 0.43374,-0.24418 0.56749,0 0.11604,0.21179 -0.11247,2.69718 0,3.10794 0.11966,0.43682 0.44787,0.59917 0.56749,1.03598 0.0733,0.26786 0,5.48158 0,6.21588 0,0.34532 0,0.69064 0,1.03598 0,0.34534 -0.13374,0.7918 0,1.03598 0.13376,0.24416 0.43376,-0.24418 0.56752,0 0.11602,0.21179 -0.11249,2.69716 0,3.10793 0.11965,0.43682 0.44786,0.59918 0.56749,1.03598 0.10254,0.37466 0,4.45934 0,5.17991 0,0.34533 -0.13375,0.79179 0,1.03596 0.13376,0.24419 0.43374,-0.24417 0.56751,0 0.28376,0.51801 -0.28376,2.58997 0,3.10795 0.13377,0.24417 0.43374,-0.24419 0.56748,0 0.26753,0.48836 -0.26751,1.58359 0,2.07196 0.13378,0.24419 0.43375,-0.2442 0.56751,0 0.13378,0.24419 -0.0846,0.72711 0,1.03597 0.11963,0.43681 0.44787,0.59916 0.56748,1.03598 0.17592,0.64221 -0.17413,4.54408 0,5.1799 0.0846,0.30887 0.43376,-0.24418 0.56752,0 0.26752,0.48837 -0.26752,1.5836 0,2.07196 0.13377,0.24417 0.43373,-0.24418 0.56749,0 0.13376,0.24417 -0.0846,0.72712 0,1.03599 0.11964,0.4368 0.44787,0.59915 0.5675,1.03597 0.0845,0.30886 -0.0846,0.72711 0,1.03598 0.11964,0.43682 0.44787,0.59916 0.56749,1.03598 0.22701,0.82879 -0.22699,2.27916 0,3.10794 0.11964,0.43681 0.44787,0.59917 0.56751,1.03597 0.16919,0.61775 -0.26753,1.5836 0,2.07198 0.13377,0.24417 0.43373,-0.24419 0.56748,0 0.26754,0.48834 -0.26751,1.58359 0,2.07195 0.13378,0.24418 0.43375,-0.24419 0.56753,0 0.15527,0.28346 -0.15393,3.58192 0,4.14391 0.11963,0.4368 0.44785,0.59917 0.56748,1.03598 0.17231,0.62906 -0.17229,5.58682 0,6.21587 0.11965,0.43683 0.44787,0.59917 0.56751,1.03599 0.0845,0.30885 0,0.69064 0,1.03598 0,0.34532 0,0.69065 0,1.03598 0,0.46656 -0.0863,2.79265 0,3.10794 0.11963,0.4368 0.44785,0.59916 0.56749,1.03596 0.16921,0.61774 -0.16917,1.45424 0,2.07197 0.11964,0.4368 0.44786,0.59918 0.56751,1.03598 0.0845,0.30886 -0.13376,0.7918 0,1.03597 0.13375,0.24419 0.43372,-0.24417 0.5675,0 0.13375,0.24419 -0.0845,0.72712 0,1.036 0.11963,0.4368 0.44785,0.59915 0.5675,1.03597 0.17831,0.65112 -0.17836,3.49277 0,4.14392 0.34049,1.24318 1.36198,1.86475 1.70248,3.10793 0.1692,0.61774 -0.26752,1.58361 0,2.07196 0.13377,0.24418 0.43375,-0.24417 0.56752,0 0.26751,0.48836 -0.16921,1.45423 0,2.07195 0.11961,0.43683 0.44784,0.59918 0.56748,1.03599 0.0734,0.26786 0,5.481571 0,6.215882 0,0.345329 -0.0846,0.727113 0,1.035972 0.11964,0.436809 0.44786,0.599171 0.5675,1.035981 0.16919,0.617736 -0.1692,1.454227 0,2.07196 0.11963,0.436811 0.44785,0.599172 0.5675,1.035983 0.0845,0.308859 -0.0846,0.727104 0,1.035972 0.70126,2.560323 0.56749,-0.357597 0.56749,2.071961 0,0.251243 -0.0183,3.074624 0,3.107942 0.13377,0.24418 0.43374,-0.244181 0.5675,0 0.11602,0.211788 -0.11247,2.697169 0,3.107934 0.11963,0.43681 0.44785,0.59917 0.5675,1.035981 0.1692,0.617735 -0.16919,1.454225 0,2.07196 0.11965,0.43681 0.44786,0.599163 0.5675,1.035982 0.0845,0.308859 -0.13376,0.791791 0,1.035971 0.13376,0.244182 0.43374,-0.24418 0.5675,0 0.11601,0.211798 -0.11248,2.697178 0,3.107942 0.11964,0.43681 0.44785,0.599171 0.56749,1.035981 0.16919,0.617735 -0.26751,1.5836 0,2.071953 0.13377,0.244181 0.43376,-0.24418 0.5675,0 0.17573,0.320788 -0.17572,4.85912 0,5.1799 0.13377,0.244181 0.43375,-0.24418 0.56751,0 0.0257,0.04703 0,4.691434 0,5.179897 0,0.251246 -0.0183,3.074621 0,3.107938 0.13375,0.244182 0.43375,-0.24418 0.5675,0 0.26751,0.48836 -0.1692,1.454225 0,2.071958 0.11965,0.436812 0.44784,0.59917 0.5675,1.035981 0.16918,0.617732 -0.26752,1.583597 0,2.071959 0.13375,0.244179 0.43373,-0.244181 0.56749,0 0.26753,0.48836 -0.26751,1.583597 0,2.071957 0.13376,0.244182 0.43373,-0.24418 0.5675,0 0.26751,0.488361 -0.16919,1.454227 0,2.07196 0.11963,0.43681 0.44785,0.599168 0.5675,1.035979 0.10255,0.374652 0,4.459332 0,5.179897 0,0.345333 -0.13376,0.791799 0,1.03598 0.13376,0.244179 0.43374,-0.244181 0.56749,0 0.26751,0.488359 -0.26752,1.583596 0,2.071958 0.13376,0.24418 0.43373,-0.244181 0.5675,0 0.13375,0.24418 -0.0846,0.727113 0,1.035979 0.11965,0.43681 0.44786,0.599169 0.5675,1.035979 0.0846,0.308867 -0.0845,0.727113 0,1.03598 0.11964,0.43681 0.44786,0.599169 0.56749,1.035979 0.0846,0.308866 -0.0845,0.727112 0,1.03598 0.11965,0.436809 0.44786,0.59917 0.56751,1.035979 0.11247,0.410767 -0.11603,2.896143 0,3.107937 0.13375,0.244182 0.43373,-0.244179 0.56748,0 0.26752,0.488362 -0.26751,1.5836 0,2.071959 0.13377,0.244182 0.43375,-0.24418 0.56751,0 0.13375,0.244182 0.18917,1.035981 0,1.035981 -0.18917,0 -0.18917,-1.035981 0,-1.035981 0.22162,0 0.90667,1.452816 0.56748,2.071959 -0.13375,0.24418 -0.37831,0 -0.56748,0 -0.18917,0 -0.37831,0 -0.56751,0"
       id="path3082"
       inkscape:connector-curvature="0" />
  </g>
</svg>
