<?xml version="1.0" encoding="UTF-8" standalone="no"?>
<!-- Created with Inkscape (http://www.inkscape.org/) -->

<svg
   xmlns:dc="http://purl.org/dc/elements/1.1/"
   xmlns:cc="http://creativecommons.org/ns#"
   xmlns:rdf="http://www.w3.org/1999/02/22-rdf-syntax-ns#"
   xmlns:svg="http://www.w3.org/2000/svg"
   xmlns="http://www.w3.org/2000/svg"
   xmlns:xlink="http://www.w3.org/1999/xlink"
   xmlns:sodipodi="http://sodipodi.sourceforge.net/DTD/sodipodi-0.dtd"
   xmlns:inkscape="http://www.inkscape.org/namespaces/inkscape"
   width="128"
   height="128"
   id="svg2488"
   sodipodi:version="0.32"
   inkscape:version="0.48.4 r9939"
   sodipodi:docname="fluxbox.svg"
   inkscape:output_extension="org.inkscape.output.svg.inkscape"
   version="1.0">
  <defs
     id="defs2490">
    <linearGradient
       inkscape:collect="always"
       xlink:href="#path1082_2_"
       id="linearGradient2213"
       gradientUnits="userSpaceOnUse"
       gradientTransform="matrix(-0.2652794,0,0,0.2652645,207.89863,-12.5586)"
       x1="541.33502"
       y1="104.50665"
       x2="606.91248"
       y2="303.14029" />
    <linearGradient
       inkscape:collect="always"
       xlink:href="#path1082_2_"
       id="linearGradient16260"
       gradientUnits="userSpaceOnUse"
       gradientTransform="matrix(-0.2655026,0,0,0.2652645,410.96414,745.53758)"
       x1="541.33502"
       y1="104.50665"
       x2="606.91248"
       y2="303.14029" />
    <linearGradient
       inkscape:collect="always"
       xlink:href="#path1082_2_"
       id="linearGradient14312"
       gradientUnits="userSpaceOnUse"
       gradientTransform="matrix(-0.2655026,0,0,0.2652645,410.96414,745.53758)"
       x1="541.33502"
       y1="104.50665"
       x2="606.91248"
       y2="303.14029" />
    <linearGradient
       inkscape:collect="always"
       xlink:href="#path1082_2_"
       id="linearGradient12330"
       gradientUnits="userSpaceOnUse"
       gradientTransform="matrix(-0.2655026,0,0,0.2652645,410.96414,745.53758)"
       x1="541.33502"
       y1="104.50665"
       x2="606.91248"
       y2="303.14029" />
    <linearGradient
       inkscape:collect="always"
       xlink:href="#path1082_2_"
       id="linearGradient3457"
       gradientUnits="userSpaceOnUse"
       gradientTransform="matrix(0.265284,0,0,0.263072,63.728962,131.00373)"
       x1="541.33502"
       y1="104.50665"
       x2="606.91248"
       y2="303.14029" />
    <linearGradient
       inkscape:collect="always"
       xlink:href="#path1082_2_"
       id="linearGradient7399"
       gradientUnits="userSpaceOnUse"
       gradientTransform="matrix(-0.2655026,0,0,0.2652645,410.96414,745.53758)"
       x1="541.33502"
       y1="104.50665"
       x2="606.91248"
       y2="303.14029" />
    <linearGradient
       inkscape:collect="always"
       xlink:href="#path1082_2_"
       id="linearGradient8412"
       gradientUnits="userSpaceOnUse"
       gradientTransform="matrix(-0.2655026,0,0,0.2652645,410.96414,745.53758)"
       x1="541.33502"
       y1="104.50665"
       x2="606.91248"
       y2="303.14029" />
    <linearGradient
       gradientUnits="userSpaceOnUse"
       id="path1082_2_"
       y2="129.3468"
       x2="112.49853"
       y1="6.1372099"
       x1="112.49854"
       gradientTransform="translate(287,-83)">
      <stop
         id="stop193"
         offset="0"
         style="stop-color:#ffffff;stop-opacity:0" />
      <stop
         id="stop195"
         offset="1"
         style="stop-color:#ffffff;stop-opacity:0.27218935" />
      <midPointStop
         id="midPointStop197"
         style="stop-color:#FFFFFF"
         offset="0" />
      <midPointStop
         id="midPointStop199"
         style="stop-color:#FFFFFF"
         offset="0.5" />
      <midPointStop
         id="midPointStop201"
         style="stop-color:#000000"
         offset="1" />
    </linearGradient>
    <linearGradient
       inkscape:collect="always"
       xlink:href="#path1082_2_"
       id="linearGradient13315"
       gradientUnits="userSpaceOnUse"
       gradientTransform="matrix(-0.2655026,0,0,0.2652645,410.96414,745.53758)"
       x1="541.33502"
       y1="104.50665"
       x2="606.91248"
       y2="303.14029" />
    <linearGradient
       inkscape:collect="always"
       xlink:href="#path1082_2_"
       id="linearGradient2250"
       gradientUnits="userSpaceOnUse"
       gradientTransform="matrix(-0.2655026,0,0,0.2652645,410.96414,745.53758)"
       x1="541.33502"
       y1="104.50665"
       x2="606.91248"
       y2="303.14029" />
    <linearGradient
       inkscape:collect="always"
       xlink:href="#path1082_2_"
       id="linearGradient3094"
       gradientUnits="userSpaceOnUse"
       gradientTransform="matrix(-0.2655026,0,0,0.2652645,410.96414,745.53758)"
       x1="541.33502"
       y1="104.50665"
       x2="606.91248"
       y2="303.14029" />
    <linearGradient
       inkscape:collect="always"
       xlink:href="#path1082_2_"
       id="linearGradient2369"
       gradientUnits="userSpaceOnUse"
       gradientTransform="matrix(-0.2655026,0,0,0.2652645,410.96414,745.53758)"
       x1="541.33502"
       y1="104.50665"
       x2="606.91248"
       y2="303.14029" />
    <linearGradient
       inkscape:collect="always"
       xlink:href="#path1082_2_"
       id="linearGradient2371"
       gradientUnits="userSpaceOnUse"
       gradientTransform="matrix(-0.2655026,0,0,0.2652645,410.96414,745.53758)"
       x1="541.33502"
       y1="104.50665"
       x2="606.91248"
       y2="303.14029" />
    <linearGradient
       inkscape:collect="always"
       xlink:href="#path1082_2_"
       id="linearGradient2373"
       gradientUnits="userSpaceOnUse"
       gradientTransform="matrix(-0.2655026,0,0,0.2652645,410.96414,745.53758)"
       x1="541.33502"
       y1="104.50665"
       x2="606.91248"
       y2="303.14029" />
    <linearGradient
       inkscape:collect="always"
       xlink:href="#path1082_2_"
       id="linearGradient2375"
       gradientUnits="userSpaceOnUse"
       gradientTransform="matrix(0.265284,0,0,0.263072,63.728962,131.00373)"
       x1="541.33502"
       y1="104.50665"
       x2="606.91248"
       y2="303.14029" />
    <linearGradient
       inkscape:collect="always"
       xlink:href="#path1082_2_"
       id="linearGradient2377"
       gradientUnits="userSpaceOnUse"
       gradientTransform="matrix(-0.2655026,0,0,0.2652645,410.96414,745.53758)"
       x1="541.33502"
       y1="104.50665"
       x2="606.91248"
       y2="303.14029" />
    <linearGradient
       inkscape:collect="always"
       xlink:href="#path1082_2_"
       id="linearGradient2379"
       gradientUnits="userSpaceOnUse"
       gradientTransform="matrix(-0.2655026,0,0,0.2652645,410.96414,745.53758)"
       x1="541.33502"
       y1="104.50665"
       x2="606.91248"
       y2="303.14029" />
    <linearGradient
       inkscape:collect="always"
       xlink:href="#path1082_2_"
       id="linearGradient2381"
       gradientUnits="userSpaceOnUse"
       gradientTransform="matrix(-0.2655026,0,0,0.2652645,410.96414,745.53758)"
       x1="541.33502"
       y1="104.50665"
       x2="606.91248"
       y2="303.14029" />
    <linearGradient
       inkscape:collect="always"
       xlink:href="#path1082_2_"
       id="linearGradient2506"
       gradientUnits="userSpaceOnUse"
       gradientTransform="matrix(-0.2655026,0,0,0.2652645,410.96414,745.53758)"
       x1="541.33502"
       y1="104.50665"
       x2="606.91248"
       y2="303.14029" />
    <linearGradient
       inkscape:collect="always"
       xlink:href="#path1082_2_"
       id="linearGradient2508"
       gradientUnits="userSpaceOnUse"
       gradientTransform="matrix(-0.2655026,0,0,0.2652645,410.96414,745.53758)"
       x1="541.33502"
       y1="104.50665"
       x2="606.91248"
       y2="303.14029" />
    <linearGradient
       inkscape:collect="always"
       xlink:href="#path1082_2_"
       id="linearGradient2510"
       gradientUnits="userSpaceOnUse"
       gradientTransform="matrix(-0.2655026,0,0,0.2652645,410.96414,745.53758)"
       x1="541.33502"
       y1="104.50665"
       x2="606.91248"
       y2="303.14029" />
    <linearGradient
       inkscape:collect="always"
       xlink:href="#path1082_2_"
       id="linearGradient2512"
       gradientUnits="userSpaceOnUse"
       gradientTransform="matrix(0.265284,0,0,0.263072,63.728962,131.00373)"
       x1="541.33502"
       y1="104.50665"
       x2="606.91248"
       y2="303.14029" />
    <linearGradient
       inkscape:collect="always"
       xlink:href="#path1082_2_"
       id="linearGradient2514"
       gradientUnits="userSpaceOnUse"
       gradientTransform="matrix(-0.2655026,0,0,0.2652645,410.96414,745.53758)"
       x1="541.33502"
       y1="104.50665"
       x2="606.91248"
       y2="303.14029" />
    <linearGradient
       inkscape:collect="always"
       xlink:href="#path1082_2_"
       id="linearGradient2516"
       gradientUnits="userSpaceOnUse"
       gradientTransform="matrix(-0.2655026,0,0,0.2652645,410.96414,745.53758)"
       x1="541.33502"
       y1="104.50665"
       x2="606.91248"
       y2="303.14029" />
    <linearGradient
       inkscape:collect="always"
       xlink:href="#path1082_2_"
       id="linearGradient2518"
       gradientUnits="userSpaceOnUse"
       gradientTransform="matrix(-0.2655026,0,0,0.2652645,410.96414,745.53758)"
       x1="541.33502"
       y1="104.50665"
       x2="606.91248"
       y2="303.14029" />
    <linearGradient
       inkscape:collect="always"
       xlink:href="#path1082_2_"
       id="linearGradient2520"
       gradientUnits="userSpaceOnUse"
       gradientTransform="matrix(-0.2655026,0,0,0.2652645,410.96414,745.53758)"
       x1="541.33502"
       y1="104.50665"
       x2="606.91248"
       y2="303.14029" />
    <linearGradient
       inkscape:collect="always"
       xlink:href="#path1082_2_"
       id="linearGradient2522"
       gradientUnits="userSpaceOnUse"
       gradientTransform="matrix(-0.2655026,0,0,0.2652645,410.96414,745.53758)"
       x1="541.33502"
       y1="104.50665"
       x2="606.91248"
       y2="303.14029" />
    <linearGradient
       inkscape:collect="always"
       xlink:href="#path1082_2_"
       id="linearGradient2582"
       gradientUnits="userSpaceOnUse"
       gradientTransform="matrix(-0.2655026,0,0,0.2652645,410.96414,745.53758)"
       x1="541.33502"
       y1="104.50665"
       x2="606.91248"
       y2="303.14029" />
    <linearGradient
       inkscape:collect="always"
       xlink:href="#path1082_2_"
       id="linearGradient2584"
       gradientUnits="userSpaceOnUse"
       gradientTransform="matrix(-0.2655026,0,0,0.2652645,410.96414,745.53758)"
       x1="541.33502"
       y1="104.50665"
       x2="606.91248"
       y2="303.14029" />
    <linearGradient
       inkscape:collect="always"
       xlink:href="#path1082_2_"
       id="linearGradient2586"
       gradientUnits="userSpaceOnUse"
       gradientTransform="matrix(0.265284,0,0,0.263072,63.728962,131.00373)"
       x1="541.33502"
       y1="104.50665"
       x2="606.91248"
       y2="303.14029" />
    <linearGradient
       inkscape:collect="always"
       xlink:href="#path1082_2_"
       id="linearGradient2588"
       gradientUnits="userSpaceOnUse"
       gradientTransform="matrix(-0.2655026,0,0,0.2652645,410.96414,745.53758)"
       x1="541.33502"
       y1="104.50665"
       x2="606.91248"
       y2="303.14029" />
    <linearGradient
       inkscape:collect="always"
       xlink:href="#path1082_2_"
       id="linearGradient2590"
       gradientUnits="userSpaceOnUse"
       gradientTransform="matrix(-0.2655026,0,0,0.2652645,410.96414,745.53758)"
       x1="541.33502"
       y1="104.50665"
       x2="606.91248"
       y2="303.14029" />
    <linearGradient
       inkscape:collect="always"
       xlink:href="#path1082_2_"
       id="linearGradient2592"
       gradientUnits="userSpaceOnUse"
       gradientTransform="matrix(-0.2655026,0,0,0.2652645,410.96414,745.53758)"
       x1="541.33502"
       y1="104.50665"
       x2="606.91248"
       y2="303.14029" />
    <linearGradient
       inkscape:collect="always"
       xlink:href="#path1082_2_"
       id="linearGradient2594"
       gradientUnits="userSpaceOnUse"
       gradientTransform="matrix(-0.2655026,0,0,0.2652645,410.96414,745.53758)"
       x1="541.33502"
       y1="104.50665"
       x2="606.91248"
       y2="303.14029" />
    <linearGradient
       inkscape:collect="always"
       xlink:href="#path1082_2_"
       id="linearGradient2596"
       gradientUnits="userSpaceOnUse"
       gradientTransform="matrix(-0.2655026,0,0,0.2652645,410.96414,745.53758)"
       x1="541.33502"
       y1="104.50665"
       x2="606.91248"
       y2="303.14029" />
    <linearGradient
       inkscape:collect="always"
       xlink:href="#path1082_2_"
       id="linearGradient2203"
       gradientUnits="userSpaceOnUse"
       gradientTransform="matrix(-0.2652794,0,0,0.2652645,501.28926,299.90234)"
       x1="541.33502"
       y1="104.50665"
       x2="606.91248"
       y2="303.14029" />
  </defs>
  <sodipodi:namedview
     id="base"
     pagecolor="#ffffff"
     bordercolor="#666666"
     borderopacity="1.0"
     gridtolerance="10000"
     guidetolerance="10"
     objecttolerance="10"
     inkscape:pageopacity="0.0"
     inkscape:pageshadow="2"
     inkscape:zoom="2.8284271"
     inkscape:cx="42.232385"
     inkscape:cy="45.152203"
     inkscape:document-units="px"
     inkscape:current-layer="layer1"
     inkscape:window-width="1519"
     inkscape:window-height="1042"
     inkscape:window-x="0"
     inkscape:window-y="16"
     showgrid="false"
     showguides="true"
     inkscape:guide-bbox="true"
     inkscape:window-maximized="0" />
  <metadata
     id="metadata2493">
    <rdf:RDF>
      <cc:Work
         rdf:about="">
        <dc:format>image/svg+xml</dc:format>
        <dc:type
           rdf:resource="http://purl.org/dc/dcmitype/StillImage" />
      </cc:Work>
    </rdf:RDF>
  </metadata>
  <g
     inkscape:label="Layer 1"
     inkscape:groupmode="layer"
     id="layer1"
     transform="translate(-293.39063,-312.46094)">
    <path
       style="fill:#ff7f2a;fill-opacity:1;fill-rule:evenodd;stroke:#000000;stroke-width:0;stroke-miterlimit:4;stroke-opacity:1;stroke-dasharray:none"
       d="m 410.03196,385.46763 c 7.6e-4,0.0776 -0.10129,0.94037 -0.23759,1.93265 -1.27568,9.28981 -4.71126,18.6346 -9.85987,26.92397 -5.28242,8.50544 -12.95986,14.58576 -23.81813,18.9934 -3.19637,1.29741 -6.27288,2.19531 -9.74109,2.86567 l -15.50257,0.933 c -1.18089,-0.0952 -2.35192,-0.24411 -3.50441,-0.39986 -3.69522,-0.49924 -5.43071,-0.77754 -9.14711,-1.73273 -2.96489,-0.76218 -3.91692,-1.09797 -6.77125,-2.06594 -4.52468,-1.53461 -8.42274,-3.15411 -12.71091,-5.3315 -1.6405,-0.83276 -3.01768,-1.54515 -3.02924,-1.53278 -0.10209,0.10806 -0.74157,2.32527 -1.18795,4.06524 -0.70094,2.73206 -1.24379,5.59529 -1.5443,8.2638 -0.1264,1.12344 -0.21764,2.06595 -0.2376,2.06595 -0.02,0 -0.43993,-0.62859 -0.89095,-1.39951 -3.07495,-5.256 -5.12821,-11.71402 -5.7021,-17.79382 l -0.1188,-1.19957 -1.06915,-0.73308 c -1.91205,-1.30151 -6.41091,-4.76976 -8.96891,-6.93092 -1.39223,-1.17654 -2.53811,-2.18496 -2.55406,-2.19923 -0.0152,-0.0148 -0.0189,-0.0455 0,-0.0665 0.019,-0.0213 0.9756,0.47322 2.07889,1.0663 2.55124,1.37148 5.11783,2.62745 8.01857,3.93195 1.25889,0.56623 2.31109,1.00647 2.31647,0.99967 0.005,-0.007 0.0151,-0.81498 0.0593,-1.79938 0.13931,-3.05557 0.72356,-7.10057 1.30673,-9.39674 l 0.11881,-0.59978 -0.47518,-1.5328 c -2.84021,-9.13302 -2.73833,-19.47537 0.29699,-28.85663 1.43999,-4.45179 3.27727,-8.23267 6.17726,-12.66225 7.13304,-10.89606 16.5164,-19.59585 29.04506,-26.99062 6.86162,-4.04977 15.84894,-8.37255 23.28355,-11.1961 12.7406,-4.83874 26.13654,-8.37613 40.21167,-10.59631 l 4.33595,9.6633 c -23.29634,7.37935 -44.43308,18.79253 -63.07944,33.98817 -3.84359,3.13238 -5.61022,4.63093 -8.07795,6.93093 -1.38924,1.29492 -4.21719,4.06641 -4.21719,4.13188 0,0.0171 0.19637,-0.10064 0.41579,-0.26657 1.56482,-1.1842 5.72361,-3.8665 8.55313,-5.53141 6.76237,-3.97897 15.75374,-8.35975 22.9272,-11.06281 15.94029,-6.00665 32.92458,-9.96147 50.90308,-11.92918 l 3.742,8.13049 c -27.3258,7.12752 -51.89032,19.46913 -73.1769,36.78723 -3.85563,3.13639 -5.66363,4.67131 -8.13737,6.99754 -9.74705,9.16548 -16.88359,18.6203 -21.44226,28.39012 -0.42442,0.90957 -0.78406,1.65607 -0.77215,1.66609 0.15833,0.13367 5.02649,1.37574 7.36521,1.86602 8.04211,1.68644 16.20541,2.31035 24.1745,1.93266 6.828,-0.32351 14.84096,-1.50657 19.89794,-2.99895 10.38911,-3.06581 19.22948,-7.82363 26.66919,-14.395 1.92479,-1.7001 3.1903,-3.0739 4.69233,-4.93162 3.0688,-3.79643 5.48647,-7.87619 8.19677,-13.92848 0.64176,-1.43375 1.18751,-2.54345 1.18793,-2.46582 m -73.88966,14.92816 3.97959,0 c 2.18001,-0.0111 3.92019,-0.022 3.92019,0 0,0.0219 -0.95165,1.49056 -2.13828,3.26552 -1.93035,2.88733 -2.18046,3.23289 -2.37587,3.26552 -0.11998,0.0191 -1.5269,0.0875 -3.14804,0.13326 -1.62126,0.0459 -3.33403,0.10682 -3.80139,0.13324 -0.4794,0.0272 -0.83183,0.0388 -0.83156,0 1.5e-4,-0.038 0.98282,-1.62525 2.19767,-3.46545 z"
       id="path16254"
       inkscape:connector-curvature="0"
       sodipodi:nodetypes="cccccccccccccssccccccscccccccccsccscccsscccccccccsccccccccscccc" />
  </g>
</svg>
