<?xml version="1.0" encoding="UTF-8" standalone="no"?>
<!-- Generator: Adobe Illustrator 9.0, SVG Export Plug-In  -->
<svg
   xmlns:dc="http://purl.org/dc/elements/1.1/"
   xmlns:cc="http://web.resource.org/cc/"
   xmlns:rdf="http://www.w3.org/1999/02/22-rdf-syntax-ns#"
   xmlns:svg="http://www.w3.org/2000/svg"
   xmlns="http://www.w3.org/2000/svg"
   xmlns:xlink="http://www.w3.org/1999/xlink"
   xmlns:sodipodi="http://inkscape.sourceforge.net/DTD/sodipodi-0.dtd"
   xmlns:inkscape="http://www.inkscape.org/namespaces/inkscape"
   width="48"
   height="48"
   viewBox="0 0 95.991 118.26"
   xml:space="preserve"
   id="svg2"
   sodipodi:version="0.32"
   inkscape:version="0.43"
   sodipodi:docbase="/home/jimmac/gfx/novell/pdes/trunk/logos/gnome/2.0"
   sodipodi:docname="icon.svg"
   version="1.0"><metadata
   id="metadata21"><rdf:RDF><cc:Work
       rdf:about=""><dc:format>image/svg+xml</dc:format><dc:type
         rdf:resource="http://purl.org/dc/dcmitype/StillImage" /><cc:license
         rdf:resource="http://creativecommons.org/licenses/by-sa/2.0/" /><dc:title>Gnome Foot</dc:title><dc:creator><cc:Agent><dc:title>Jakub Steiner</dc:title></cc:Agent></dc:creator><dc:description>Tango styled</dc:description></cc:Work><cc:License
       rdf:about="http://creativecommons.org/licenses/by-sa/2.0/"><cc:permits
         rdf:resource="http://web.resource.org/cc/Reproduction" /><cc:permits
         rdf:resource="http://web.resource.org/cc/Distribution" /><cc:requires
         rdf:resource="http://web.resource.org/cc/Notice" /><cc:requires
         rdf:resource="http://web.resource.org/cc/Attribution" /><cc:permits
         rdf:resource="http://web.resource.org/cc/DerivativeWorks" /><cc:requires
         rdf:resource="http://web.resource.org/cc/ShareAlike" /></cc:License></rdf:RDF></metadata><defs
   id="defs19"><linearGradient
   id="linearGradient3250"><stop
     style="stop-color:#ffa54c;stop-opacity:1;"
     offset="0"
     id="stop3252" /><stop
     style="stop-color:#f57900;stop-opacity:1;"
     offset="1"
     id="stop3254" /></linearGradient><linearGradient
   id="linearGradient3242"><stop
     style="stop-color:#f57900;stop-opacity:1;"
     offset="0"
     id="stop3244" /><stop
     style="stop-color:#f57900;stop-opacity:0;"
     offset="1"
     id="stop3246" /></linearGradient><linearGradient
   inkscape:collect="always"
   id="linearGradient3234"><stop
     style="stop-color:#ffffff;stop-opacity:1;"
     offset="0"
     id="stop3236" /><stop
     style="stop-color:#ffffff;stop-opacity:0;"
     offset="1"
     id="stop3238" /></linearGradient><linearGradient
   inkscape:collect="always"
   id="linearGradient3206"><stop
     style="stop-color:#000000;stop-opacity:1;"
     offset="0"
     id="stop3208" /><stop
     style="stop-color:#000000;stop-opacity:0;"
     offset="1"
     id="stop3210" /></linearGradient><radialGradient
   inkscape:collect="always"
   xlink:href="#linearGradient3206"
   id="radialGradient3212"
   cx="47.687531"
   cy="104.40141"
   fx="47.687531"
   fy="104.40141"
   r="36.648281"
   gradientTransform="matrix(1,0,0,0.378151,0,64.92189)"
   gradientUnits="userSpaceOnUse" />
		
	
			
		
				
				
				
				
				
			<linearGradient
   inkscape:collect="always"
   xlink:href="#linearGradient3234"
   id="linearGradient3240"
   x1="31.505213"
   y1="36.611977"
   x2="60.698078"
   y2="149.32854"
   gradientUnits="userSpaceOnUse" /><radialGradient
   inkscape:collect="always"
   xlink:href="#linearGradient3250"
   id="radialGradient3256"
   cx="45.161022"
   cy="44.557236"
   fx="45.161022"
   fy="44.557236"
   r="34.601806"
   gradientTransform="matrix(1.784653,-5.138836e-16,5.446303e-16,1.891433,-35.43574,-41.49314)"
   gradientUnits="userSpaceOnUse" /></defs><sodipodi:namedview
   inkscape:cy="33.704728"
   inkscape:cx="43.809911"
   inkscape:zoom="1"
   inkscape:window-height="748"
   inkscape:window-width="872"
   inkscape:pageshadow="2"
   inkscape:pageopacity="0.0"
   borderopacity="0.17254902"
   bordercolor="#666666"
   pagecolor="#ffffff"
   id="base"
   inkscape:showpageshadow="false"
   inkscape:window-x="563"
   inkscape:window-y="241"
   inkscape:current-layer="svg2"
   fill="#f57900"
   stroke="#ce5c00" />
	<path
   sodipodi:type="arc"
   style="opacity:0.64044944;color:#000000;fill:url(#radialGradient3212);fill-opacity:1;fill-rule:evenodd;stroke:none;stroke-width:2;stroke-linecap:butt;stroke-linejoin:miter;marker:none;marker-start:none;marker-mid:none;marker-end:none;stroke-miterlimit:4;stroke-dasharray:none;stroke-dashoffset:0;stroke-opacity:1;visibility:visible;display:inline;overflow:visible"
   id="path2331"
   sodipodi:cx="47.687531"
   sodipodi:cy="104.40141"
   sodipodi:rx="36.648281"
   sodipodi:ry="13.858594"
   d="M 84.335812 104.40141 A 36.648281 13.858594 0 1 1  11.039249,104.40141 A 36.648281 13.858594 0 1 1  84.335812 104.40141 z"
   transform="translate(5.819997e-16,-1.231876)" /><path
   style="fill:#f57900;fill-rule:nonzero;stroke:#863b00;stroke-width:2.46375012;stroke-miterlimit:4;stroke-dasharray:none;stroke-opacity:1"
   id="path9"
   d="M 82.508964,2.46375 C 60.213402,2.46375 56.031058,34.219656 68.573558,34.219656 C 81.114245,34.219656 104.80543,2.46375 82.508964,2.46375 z " /><path
   sodipodi:type="inkscape:offset"
   inkscape:radius="-2.4529328"
   inkscape:original="M 82.5 2.46875 C 60.204437 2.4687501 56.02 34.21875 68.5625 34.21875 C 81.10319 34.218748 104.79647 2.46875 82.5 2.46875 z "
   xlink:href="#path9"
   style="fill:none;fill-rule:nonzero;stroke:#ffffff;stroke-width:2.46375012;stroke-miterlimit:4;stroke-dasharray:none;stroke-opacity:1;opacity:0.56179775"
   id="path3258"
   inkscape:href="#path9"
   d="M 82.5,4.90625 C 72.516585,4.90625 66.850076,11.891503 64.8125,19.03125 C 63.793712,22.601124 63.826765,26.146469 64.625,28.46875 C 65.423235,30.791031 66.461765,31.78125 68.5625,31.78125 C 70.662634,31.78125 74.228746,30.154994 77.625,27.375 C 81.021254,24.595006 84.317327,20.776899 86.5,17.09375 C 88.682673,13.410601 89.541537,9.8557168 89.09375,8 C 88.869857,7.0721416 88.503025,6.496199 87.5625,5.9375 C 86.621975,5.378801 84.995979,4.90625 82.5,4.90625 z " /><path
   style="fill:#f57900;fill-rule:nonzero;stroke:#863b00;stroke-width:2.46375012;stroke-miterlimit:4;stroke-dasharray:none;stroke-opacity:1"
   id="path11"
   d="M 45.487745,30.284719 C 52.165901,30.692531 59.492933,4.7991563 46.94137,6.4276875 C 34.394339,8.0562188 38.80687,29.876906 45.487745,30.284719 z " /><path
   sodipodi:type="inkscape:offset"
   inkscape:radius="-2.2448676"
   inkscape:original="M 46.9375 6.4375 C 34.390471 8.0660312 38.819125 29.873437 45.5 30.28125 C 52.178158 30.689062 59.489063 4.8089688 46.9375 6.4375 z "
   xlink:href="#path11"
   style="fill:none;fill-rule:nonzero;stroke:#ffffff;stroke-width:2.46375012;stroke-miterlimit:4;stroke-dasharray:none;stroke-opacity:1;opacity:0.55617978"
   id="path3260"
   inkscape:href="#path11"
   d="M 47.21875,8.65625 C 44.732899,8.9788989 43.400065,10.112152 42.4375,11.875 C 41.474935,13.637848 41.083657,16.11751 41.25,18.65625 C 41.416343,21.19499 42.159823,23.7592 43.125,25.53125 C 44.090177,27.3033 45.154198,28.002511 45.625,28.03125 C 45.726402,28.037442 46.029842,27.997676 46.5625,27.5625 C 47.095158,27.127324 47.754078,26.362451 48.375,25.34375 C 49.616844,23.306347 50.72007,20.334377 51.21875,17.5 C 51.71743,14.665623 51.577287,11.944859 50.90625,10.4375 C 50.570732,9.6838205 50.164778,9.2522773 49.65625,8.96875 C 49.147722,8.6852227 48.425298,8.4997037 47.21875,8.65625 z " /><path
   style="fill:#f57900;fill-rule:nonzero;stroke:#863b00;stroke-width:2.46375012;stroke-miterlimit:4;stroke-dasharray:none;stroke-opacity:1"
   id="path13"
   d="M 14.88187,46.374281 C 19.631526,44.283563 15.493589,23.834031 7.417089,29.411094 C -0.655786,34.989063 10.132214,48.464094 14.88187,46.374281 z " /><path
   style="fill:#f57900;fill-rule:nonzero;stroke:#863b00;stroke-width:2.46375012;stroke-miterlimit:4;stroke-dasharray:none;stroke-opacity:1"
   id="path15"
   d="M 28.264464,35.670563 C 33.918558,34.517812 34.228495,11.325063 24.145558,15.485656 C 14.060808,19.647156 22.614902,36.825125 28.264464,35.670563 L 28.264464,35.670563 z " /><path
   sodipodi:type="inkscape:offset"
   inkscape:radius="-2.2269046"
   inkscape:original="M 25.90625 15 C 25.356028 15.058398 24.786434 15.239963 24.15625 15.5 C 14.071501 19.6615 22.600438 36.810812 28.25 35.65625 C 33.550714 34.575546 34.159577 14.12403 25.90625 15 z "
   xlink:href="#path15"
   style="fill:none;fill-rule:nonzero;stroke:#ffffff;stroke-width:2.46375012;stroke-miterlimit:4;stroke-dasharray:none;stroke-opacity:1;opacity:0.5505618"
   id="path3262"
   inkscape:href="#path15"
   d="M 26.15625,17.21875 C 25.927363,17.243043 25.530683,17.343521 25,17.5625 C 23.079661,18.354933 22.298241,19.486097 21.90625,21.09375 C 21.514259,22.701403 21.717662,24.808671 22.40625,26.84375 C 23.094838,28.878829 24.278036,30.812115 25.4375,32.03125 C 26.596964,33.250385 27.567367,33.518846 27.8125,33.46875 C 27.798721,33.471559 28.593741,32.873017 29.15625,31.15625 C 29.718759,29.439483 30.035566,27.011149 29.9375,24.6875 C 29.839434,22.363851 29.313924,20.145729 28.5625,18.8125 C 27.811076,17.479271 27.318062,17.095441 26.15625,17.21875 z " /><path
   style="fill:url(#radialGradient3256);fill-rule:nonzero;stroke:#863b00;stroke-width:2.46375012;stroke-miterlimit:4;stroke-dasharray:none;stroke-opacity:1;fill-opacity:1.0"
   d="M 57.789183,87.572406 C 58.792402,95.233844 52.16862,99.017437 45.681683,94.078375 C 25.030964,78.355844 79.873589,70.513156 76.258558,49.032313 C 73.257964,31.20275 18.552183,36.691906 12.32262,64.589 C 8.105839,83.458937 29.680027,109.63688 52.191277,109.63688 C 63.265652,109.63688 76.039245,99.637312 78.429027,86.96975 C 80.254214,77.310031 56.951808,81.180625 57.789183,87.572406 L 57.789183,87.572406 z "
   id="newshape" /><path
   sodipodi:type="inkscape:offset"
   inkscape:radius="-1.9303827"
   inkscape:original="M 10.25 28.4375 C 9.3731837 28.407992 8.4158125 28.709117 7.40625 29.40625 C -0.66662499 34.984218 10.125344 48.464813 14.875 46.375 C 19.030949 44.54562 16.387714 28.644056 10.25 28.4375 z "
   xlink:href="#path13"
   style="fill:none;fill-rule:nonzero;stroke:#ffffff;stroke-width:2.46375012;stroke-miterlimit:4;stroke-dasharray:none;stroke-opacity:1;fill-opacity:1;opacity:0.58426966"
   id="path3264"
   inkscape:href="#path13"
   d="M 10.1875,30.375 C 9.7991097,30.361929 9.2538883,30.479418 8.5,31 C 6.9464373,32.073437 6.4744174,33.240311 6.4375,34.75 C 6.4005826,36.259689 6.9979616,38.110373 8,39.78125 C 9.0020384,41.452127 10.390261,42.919822 11.65625,43.78125 C 12.922239,44.642678 13.853244,44.699571 14.09375,44.59375 C 14.119867,44.582254 14.645285,44.006319 14.84375,42.5625 C 15.042215,41.118681 14.944892,39.113314 14.53125,37.1875 C 14.117608,35.261686 13.379648,33.412162 12.53125,32.15625 C 11.682852,30.900338 10.89446,30.398792 10.1875,30.375 z " /><path
   sodipodi:type="inkscape:offset"
   inkscape:radius="-2.4510012"
   inkscape:original="M 56.34375 38.75 C 39.036579 38.457124 16.205977 47.158066 12.3125 64.59375 C 8.0957186 83.46369 29.67625 109.625 52.1875 109.625 C 63.261875 109.625 76.047718 99.636312 78.4375 86.96875 C 80.26269 77.309032 56.943875 81.170719 57.78125 87.5625 C 58.784467 95.223941 52.174437 99.032812 45.6875 94.09375 C 25.036781 78.371217 79.865031 70.512093 76.25 49.03125 C 75.124776 42.345163 66.728053 38.925726 56.34375 38.75 z "
   xlink:href="#newshape"
   style="fill:none;fill-rule:nonzero;stroke:url(#linearGradient3240);stroke-width:2.46375012;stroke-miterlimit:4;stroke-dasharray:none;stroke-opacity:1;opacity:0.46629213;fill-opacity:1.0"
   id="path3232"
   inkscape:href="#newshape"
   d="M 56.3125,41.1875 C 48.087704,41.048318 38.372646,43.087746 30.4375,47.1875 C 22.502354,51.287254 16.462313,57.317013 14.71875,65.125 C 12.857015,73.456196 16.781492,84.122937 24.09375,92.59375 C 31.406008,101.06456 41.881347,107.1875 52.1875,107.1875 C 61.788065,107.1875 73.893193,97.833238 76.03125,86.5 C 76.173776,85.745689 76.060408,85.456973 75.90625,85.1875 C 75.752092,84.918027 75.438616,84.605399 74.8125,84.3125 C 73.560269,83.726702 71.17534,83.438605 68.71875,83.6875 C 66.26216,83.936395 63.736103,84.668852 62.09375,85.5625 C 61.272573,86.009324 60.697342,86.516114 60.4375,86.84375 C 60.177658,87.171386 60.211304,87.193162 60.21875,87.25 C 60.817123,91.819699 59.037079,95.853009 55.71875,97.6875 C 52.400421,99.521991 47.991824,98.927808 44.1875,96.03125 C 41.359051,93.877796 39.532642,91.693786 38.84375,89.1875 C 38.154858,86.681214 38.868307,84.128044 40.21875,82.09375 C 42.919636,78.025162 47.916127,74.95008 53.28125,71.625 C 58.646373,68.29992 64.421406,64.85598 68.4375,61.125 C 72.453594,57.39402 74.575176,53.783702 73.84375,49.4375 C 73.435379,47.010957 71.762598,45.14482 68.6875,43.65625 C 65.612402,42.16768 61.246912,41.271001 56.3125,41.1875 z " />
</svg>