<?xml version="1.0" encoding="UTF-8" standalone="no"?>
<!-- Created with Inkscape (http://www.inkscape.org/) -->

<svg
   xmlns:dc="http://purl.org/dc/elements/1.1/"
   xmlns:cc="http://creativecommons.org/ns#"
   xmlns:rdf="http://www.w3.org/1999/02/22-rdf-syntax-ns#"
   xmlns:svg="http://www.w3.org/2000/svg"
   xmlns="http://www.w3.org/2000/svg"
   xmlns:sodipodi="http://sodipodi.sourceforge.net/DTD/sodipodi-0.dtd"
   xmlns:inkscape="http://www.inkscape.org/namespaces/inkscape"
   width="512"
   height="512"
   id="svg2"
   version="1.1"
   inkscape:version="0.48.4 r9939"
   sodipodi:docname="twm.svg"
   inkscape:export-filename="/u2/code/xde-icons/xde-icons/src/icons/hicolor/48x48/apps/twm.png"
   inkscape:export-xdpi="8.4399996"
   inkscape:export-ydpi="8.4399996">
  <defs
     id="defs4" />
  <sodipodi:namedview
     id="base"
     pagecolor="#ffffff"
     bordercolor="#666666"
     borderopacity="1.0"
     inkscape:pageopacity="0.0"
     inkscape:pageshadow="2"
     inkscape:zoom="1.4"
     inkscape:cx="267.23363"
     inkscape:cy="228.25809"
     inkscape:document-units="px"
     inkscape:current-layer="layer1"
     showgrid="false"
     inkscape:window-width="1850"
     inkscape:window-height="1180"
     inkscape:window-x="0"
     inkscape:window-y="0"
     inkscape:window-maximized="1" />
  <metadata
     id="metadata7">
    <rdf:RDF>
      <cc:Work
         rdf:about="">
        <dc:format>image/svg+xml</dc:format>
        <dc:type
           rdf:resource="http://purl.org/dc/dcmitype/StillImage" />
        <dc:title></dc:title>
      </cc:Work>
    </rdf:RDF>
  </metadata>
  <g
     inkscape:label="Layer 1"
     inkscape:groupmode="layer"
     id="layer1"
     transform="translate(0,-540.36218)">
    <path
       style="fill:#ff0000;fill-opacity:1;stroke:#ff0101;stroke-width:0.9860453px;stroke-linecap:butt;stroke-linejoin:miter;stroke-opacity:1"
       d="m 326.22622,590.42698 c 36.48566,-0.0273 73.06343,-2.99073 109.45691,-0.16383 13.94506,1.08319 33.78307,-6.16248 41.50961,6.54488 7.47638,12.29594 -0.30387,32.85344 -10.27986,42.81833 -9.11622,9.10606 -24.25482,5.50289 -36.56143,6.77612 -24.17568,2.50118 -48.55499,1.28482 -72.83682,1.65498 -39.45043,0.60139 -78.9057,1.0352 -118.35985,0.91943 -53.30204,-0.1564 -106.68763,1.30049 -159.894218,-2.1805 -10.027624,-0.65605 -23.519495,4.88407 -29.963541,-3.52092 -8.204022,-10.70054 -6.786248,-32.3953 2.707587,-41.74136 13.978398,-13.76082 45.844945,-8.27965 68.987872,-10.06691 37.86001,-2.92383 75.90595,-0.86685 113.86042,-1.04022 30.45751,-0.13913 60.91555,0.0228 91.37332,0 z"
       id="path3068"
       inkscape:connector-curvature="0"
       sodipodi:nodetypes="aaaaaaaaasaaa" />
    <path
       style="fill:#ff0101;fill-opacity:1;stroke:#ff0101;stroke-width:1.06528032px;stroke-linecap:butt;stroke-linejoin:miter;stroke-opacity:1"
       d="m 154.3742,756.47798 c 0.47068,59.86567 1.74817,94.27618 6.35418,141.05331 1.91474,19.44563 3.61319,42.62163 9.17824,61.09578 5.61694,18.64632 9.19366,39.08459 24.00468,48.79463 4.51353,2.959 11.15413,2.4015 15.53244,-0.8202 13.38453,-9.84818 25.06367,-47.15436 25.06367,-47.15436 l 2.11809,-2e-5 c 0,0 10.88738,39.87037 25.06367,49.61468 3.95462,2.7183 10.06153,2.3359 13.76741,-0.82 11.14029,-9.48702 15.44185,-26.86709 19.41553,-42.23403 5.41931,-20.95747 7.74178,-41.9252 10.59028,-63.556 6.26348,-47.56303 6.70719,-147.2039 6.70719,-147.2039 l -22.59261,0.82008 c 0,0 -1.92221,93.87481 -6.70719,136.13285 -2.18904,19.33204 -2.33008,50.80124 -12.70835,72.26931 -2.23435,4.62192 -9.13614,3.04126 -10.59029,0.1026 -11.32005,-22.87722 -12.10229,-42.13932 -13.76739,-61.30082 -3.94424,-45.38892 -2.47107,-147.20388 -2.47107,-147.20388 l -18.70953,0.41003 c 0,0 0.7184,103.4731 -4.23612,153.76452 -1.56741,15.91002 -1.68428,35.76711 -11.1198,54.94518 -1.64936,3.3524 -10.40292,3.53632 -11.73758,0 -7.41801,-19.65469 -10.60507,-41.73967 -13.14962,-59.4556 -6.74763,-46.97884 -7.7662,-148.43401 -7.7662,-148.43401 z"
       id="path3070"
       inkscape:connector-curvature="0"
       sodipodi:nodetypes="cssssccssssccssssccsssscc" />
    <path
       style="fill:#ff0101;fill-opacity:1;stroke:#ff0101;stroke-width:1.0814898px;stroke-linecap:butt;stroke-linejoin:miter;stroke-opacity:1"
       d="m 343.76557,744.58421 0,86.9907 -0.70314,174.82999 25.31292,0 c 0,0 -1.54159,-66.27635 0.35157,-99.2966 1.57553,-27.4804 4.59084,-53.4295 9.14078,-81.89856 1.85634,-11.6152 4.77233,-25.41344 13.00802,-31.82586 2.95597,-2.30157 7.64533,-2.82435 10.54705,-0.42435 6.45092,5.3355 7.72542,17.29477 7.73451,26.73373 0.032,33.22702 0.29297,60.53961 0.35156,90.80981 0.062,31.96722 0,95.90183 0,95.90183 l 23.55507,-0.4242 c 0,0 -0.12502,-63.08633 10e-6,-94.62895 0.11721,-29.5637 -0.71989,-54.73391 0.70314,-88.68807 0.52597,-12.54978 6.82682,-26.71264 16.17214,-32.25023 3.70584,-2.19589 9.11057,-1.45922 12.3049,1.69738 6.19391,6.12077 6.01902,18.06163 7.38294,27.58242 4.3348,30.25904 1.76106,61.38132 2.28519,92.08285 0.536,31.39685 0.87892,94.2046 0.87892,94.2046 l 25.31292,-0.8488 c 0,0 -1.05234,-67.62564 -2.1094,-101.41835 -1.05366,-33.68347 2.48204,-68.27136 -4.21884,-100.9941 -2.13871,-10.44414 -6.00403,-20.5822 -11.25018,-29.27979 -3.75831,-6.23094 -8.13493,-12.83537 -14.06273,-15.70077 -7.07216,-3.41855 -16.09013,-4.66007 -22.85195,-0.42434 -8.68388,5.43977 -18.28155,30.55284 -18.28155,30.55284 l -3.51568,-0.42434 c 0,0 -7.90518,-25.25971 -15.82059,-30.97719 -5.83324,-4.21347 -14.51926,-3.71061 -20.39096,0.42435 -5.98916,4.21767 -8.66913,11.30006 -11.95332,18.67116 -2.90435,6.51859 -8.08608,25.03637 -8.08608,25.03637 l -1.0547,-51.77008 z"
       id="path3091"
       inkscape:connector-curvature="0"
       sodipodi:nodetypes="ccccssssssccssssssccsssssccsssccc" />
    <path
       style="fill:#ff0101;fill-opacity:1;stroke:#ff0101;stroke-width:0.9860453px;stroke-linecap:butt;stroke-linejoin:miter;stroke-opacity:1"
       d="m 43.211544,936.1415 c 0,0 16.756288,-53.11427 27.659241,-97.78074 9.494978,-38.89837 18.667945,-76.84942 29.089891,-115.46447 8.255944,-30.58966 23.367284,-92.05952 23.367284,-92.05952 l 39.58133,-8.32177 c 0,0 -7.41707,37.24612 -11.92208,55.6518 -10.53211,43.03008 -15.48735,71.83739 -32.90497,131.06779 -9.74139,33.12665 -17.86849,68.88916 -26.228583,102.46172 -5.38868,21.63992 -4.768834,44.20938 -4.768834,44.20938 0,0 3.298395,15.19884 16.214037,16.12341 9.21225,0.65946 4.45671,22.41054 -1.43065,30.1664 -4.385248,5.777 -28.91748,3.5901 -43.873277,3.6408 -13.050252,0.044 -35.701884,2.3374 -40.058212,-3.6408 -5.821034,-7.98826 -4.981513,-27.77559 4.291952,-29.12618 10.498911,-1.52907 20.982871,-36.92782 20.982871,-36.92782 z"
       id="path3861"
       inkscape:connector-curvature="0"
       sodipodi:nodetypes="cssccssscsssssc" />
  </g>
</svg>
