<?xml version="1.0" encoding="UTF-8" standalone="no"?>
<!-- Created with Inkscape (http://www.inkscape.org/) -->

<svg
   xmlns:dc="http://purl.org/dc/elements/1.1/"
   xmlns:cc="http://creativecommons.org/ns#"
   xmlns:rdf="http://www.w3.org/1999/02/22-rdf-syntax-ns#"
   xmlns:svg="http://www.w3.org/2000/svg"
   xmlns="http://www.w3.org/2000/svg"
   xmlns:sodipodi="http://sodipodi.sourceforge.net/DTD/sodipodi-0.dtd"
   xmlns:inkscape="http://www.inkscape.org/namespaces/inkscape"
   width="256"
   height="256"
   id="svg2"
   version="1.1"
   inkscape:version="0.48.4 r9939"
   sodipodi:docname="vtwm.svg"
   inkscape:export-filename="/home/brian/.icons/vtwm32.png"
   inkscape:export-xdpi="11.25"
   inkscape:export-ydpi="11.25">
  <defs
     id="defs4">
    <filter
       id="filter6620"
       style="color-interpolation-filters:sRGB;"
       inkscape:label="Drop Shadow">
      <feFlood
         id="feFlood6622"
         flood-opacity="1"
         flood-color="rgb(255,255,255)"
         result="flood" />
      <feComposite
         id="feComposite6624"
         in2="SourceGraphic"
         in="flood"
         operator="in"
         result="composite1" />
      <feGaussianBlur
         id="feGaussianBlur6626"
         in="composite"
         stdDeviation="0.5"
         result="blur" />
      <feOffset
         id="feOffset6628"
         dx="2"
         dy="1.5"
         result="offset" />
      <feComposite
         id="feComposite6630"
         in2="offset"
         in="SourceGraphic"
         operator="over"
         result="fbSourceGraphic" />
      <feColorMatrix
         result="fbSourceGraphicAlpha"
         in="fbSourceGraphic"
         values="0 0 0 -1 0 0 0 0 -1 0 0 0 0 -1 0 0 0 0 1 0"
         id="feColorMatrix6632" />
      <feFlood
         id="feFlood6634"
         flood-opacity="1"
         flood-color="rgb(0,0,0)"
         result="flood"
         in="fbSourceGraphic" />
      <feComposite
         id="feComposite6636"
         in2="fbSourceGraphic"
         in="flood"
         operator="in"
         result="composite1" />
      <feGaussianBlur
         id="feGaussianBlur6638"
         in="composite"
         stdDeviation="0.5"
         result="blur" />
      <feOffset
         id="feOffset6640"
         dx="-2"
         dy="-1.5"
         result="offset" />
      <feComposite
         id="feComposite6642"
         in2="offset"
         in="fbSourceGraphic"
         operator="over"
         result="composite2" />
    </filter>
  </defs>
  <sodipodi:namedview
     id="base"
     pagecolor="#ffffff"
     bordercolor="#666666"
     borderopacity="1.0"
     inkscape:pageopacity="0.0"
     inkscape:pageshadow="2"
     inkscape:zoom="1.979899"
     inkscape:cx="-46.745253"
     inkscape:cy="147.16085"
     inkscape:document-units="px"
     inkscape:current-layer="layer1"
     showgrid="false"
     inkscape:window-width="1918"
     inkscape:window-height="1124"
     inkscape:window-x="0"
     inkscape:window-y="21"
     inkscape:window-maximized="0" />
  <metadata
     id="metadata7">
    <rdf:RDF>
      <cc:Work
         rdf:about="">
        <dc:format>image/svg+xml</dc:format>
        <dc:type
           rdf:resource="http://purl.org/dc/dcmitype/StillImage" />
        <dc:title></dc:title>
      </cc:Work>
    </rdf:RDF>
  </metadata>
  <g
     inkscape:label="Layer 1"
     inkscape:groupmode="layer"
     id="layer1"
     transform="translate(0,-796.36218)">
    <g
       id="g6648"
       transform="matrix(1,0,0,1.2572771,-0.50507929,-236.18448)">
      <path
         transform="matrix(1.2495758,0,0,2.9621701,-37.934057,568.22293)"
         inkscape:connector-curvature="0"
         id="path3015"
         d="m 33.335034,107.1919 5.682108,0 12.184965,24.05426 2.525382,0.0631 12.058696,-24.05425 5.555839,-0.0631 -0.06313,5.17703 -16.478113,32.82996 -5.303301,0 -16.225575,-31.8198 z"
         style="fill:#fe0000;fill-opacity:1;stroke:none;filter:url(#filter6620)" />
      <path
         transform="matrix(1.1111962,0,0,2.9621701,-16.842819,568.72801)"
         inkscape:connector-curvature="0"
         id="path3785"
         d="m 97.353452,107.31817 5.682108,-0.12627 12.2481,23.99113 2.58852,0.0631 11.93242,-23.99112 5.36644,0 12.2481,23.92799 2.46224,0.12626 11.93243,-24.05425 5.42957,0 0,5.05076 -16.47811,32.95623 -5.55584,0 -12.18497,-23.92799 -2.20971,-0.0631 -11.99556,23.92799 -5.55584,0 -16.036167,-32.13548 z"
         style="fill:#808080;fill-opacity:1;stroke:none;filter:url(#filter6620)" />
      <path
         transform="matrix(1.1432532,0,0,2.9621701,-10.881212,568.22293)"
         inkscape:connector-curvature="0"
         id="path3787"
         d="m 160.36172,145.19889 6.50285,-0.0631 11.99557,-23.86486 2.33597,0 12.0587,23.92799 5.61897,0 11.99556,-23.92799 2.46225,-0.0631 11.99556,23.99112 6.9448,0 -0.0631,-3.97747 -16.98319,-33.96638 -5.36644,0.0631 -12.05869,23.92799 -2.52539,0 -11.99556,-23.99112 -5.42957,0 -17.61453,34.97653 z"
         style="fill:#808080;fill-opacity:1;stroke:none;filter:url(#filter6620)" />
      <path
         transform="matrix(1.2277053,0,0,2.9621701,-29.724012,568.22293)"
         inkscape:connector-curvature="0"
         id="path3789"
         d="m 37.754451,95.196341 -6.944798,7.071069 52.527932,0 0,1.76777 -20.455589,41.16371 7.891817,0 21.528876,-42.99462 140.411201,0.0631 -6.75539,-7.007934 z"
         style="fill:#808080;fill-opacity:1;stroke:none;filter:url(#filter6620)" />
    </g>
  </g>
</svg>
